<?xml version="1.0" standalone="no"?>
<!DOCTYPE svg PUBLIC "-//W3C//DTD SVG 20010904//EN"
 "http://www.w3.org/TR/2001/REC-SVG-20010904/DTD/svg10.dtd">
<svg version="1.0" xmlns="http://www.w3.org/2000/svg"
 width="1024.000000pt" height="1024.000000pt" viewBox="0 0 1024.000000 1024.000000"
 preserveAspectRatio="xMidYMid meet">
<metadata>
Created by potrace 1.16, written by Peter Selinger 2001-2019
</metadata>
<g transform="translate(0.000000,1024.000000) scale(0.100000,-0.100000)"
fill="#000000" stroke="none">
<path d="M687 10118 c-11 -205 8 -2826 20 -2814 3 2 9 188 13 413 5 224 13
620 19 878 16 730 22 1325 14 1493 l-6 152 -27 0 -27 0 -6 -122z"/>
<path d="M816 10053 c1 -104 5 -834 9 -1623 4 -789 8 -1635 9 -1880 3 -546 -9
-1315 -24 -1470 -10 -105 -21 -137 -41 -124 -5 2 -11 26 -14 52 -4 26 -13 61
-21 79 -8 17 -14 62 -14 100 0 37 -5 75 -10 83 -7 11 -10 -4 -10 -50 0 -36 -5
-195 -10 -355 -10 -280 -22 -377 -41 -343 -8 14 -20 12 -96 -12 -152 -49 -226
-69 -303 -84 -67 -12 -76 -12 -87 3 -20 26 -15 68 19 144 30 68 32 80 36 217
2 80 8 153 14 163 7 14 4 20 -21 28 -45 16 -41 50 14 115 51 60 55 73 20 66
-33 -6 -33 17 0 56 l24 29 -25 -5 c-16 -3 -35 -20 -50 -44 -34 -53 -59 -63
-123 -49 -29 6 -56 11 -61 11 -14 0 -12 -36 3 -61 9 -17 9 -23 0 -26 -10 -4
-13 -79 -13 -333 l0 -328 33 -6 c25 -5 29 -9 17 -16 -8 -5 -23 -10 -32 -10
-16 0 -18 -14 -18 -155 l0 -154 28 4 c169 29 225 39 337 61 72 14 168 33 215
44 47 10 111 24 143 31 65 14 84 32 93 91 7 39 39 76 89 102 21 11 24 16 12
16 -28 0 -17 33 13 40 21 6 17 8 -28 18 -29 7 -61 12 -71 12 -16 0 -20 11 -25
62 -9 90 -5 102 35 109 19 4 52 14 74 24 22 10 54 19 70 19 l30 1 -3 98 c-2
54 -1 114 2 132 6 32 11 36 75 55 37 11 79 20 92 20 42 1 484 107 484 116 -1
51 -17 169 -24 173 -14 10 -20 128 -8 145 8 11 47 21 117 31 69 9 109 19 116
29 6 9 14 13 17 10 3 -4 9 7 12 22 4 16 11 45 16 64 14 53 11 67 -13 75 l-23
8 23 4 c13 3 26 2 29 -1 9 -8 8 -197 0 -229 -8 -28 -7 -28 30 -25 36 3 38 5
43 40 4 30 24 58 109 148 57 61 101 113 98 117 -3 3 -54 -43 -113 -101 -59
-58 -109 -104 -111 -103 -2 2 2 39 9 81 10 68 10 80 -5 106 -9 15 -17 36 -17
45 0 9 -9 19 -20 22 -11 3 -20 14 -20 25 0 11 -9 31 -20 45 -11 14 -20 32 -20
39 0 8 -7 14 -16 14 -17 0 -14 -21 12 -74 13 -27 12 -31 -6 -51 -11 -12 -17
-26 -13 -31 5 -5 -2 -1 -14 10 -12 10 -19 23 -17 30 3 7 -3 19 -12 27 -16 13
-17 11 -10 -23 8 -43 9 -43 -41 -24 -21 8 -54 17 -73 19 -19 3 -44 9 -54 13
-14 5 -17 4 -12 -4 4 -7 16 -12 27 -12 23 0 25 -17 3 -41 -11 -12 -16 -35 -16
-66 1 -26 -4 -53 -10 -60 -15 -19 -52 -16 -92 6 -19 11 -43 17 -55 14 -12 -3
-21 -1 -21 6 0 6 -11 8 -30 5 -31 -7 -48 11 -37 39 7 18 3 32 -7 29 -5 -2 -13
3 -18 10 -11 17 -37 -14 -45 -54 -3 -15 -11 -29 -19 -32 -13 -5 -92 54 -107
80 -11 19 -27 8 -27 -17 0 -15 -7 -19 -35 -19 -24 0 -35 5 -35 15 0 8 -14 30
-30 48 -17 19 -30 40 -30 46 0 19 61 111 75 111 7 0 18 -7 25 -15 19 -23 30
-18 30 14 0 34 -27 46 -55 25 -10 -8 -29 -14 -42 -14 -24 0 -38 24 -59 94 -5
16 -14 31 -20 33 -8 3 -13 -137 -17 -489 -8 -616 -10 -688 -19 -688 -5 0 -8
-10 -8 -22 0 -19 -2 -20 -10 -8 -5 8 -10 47 -10 86 0 116 -11 196 -26 190 -8
-3 -11 0 -8 9 3 7 0 116 -6 242 -10 185 -12 415 -6 614 1 19 5 25 16 21 8 -3
3 5 -12 17 -31 25 -38 71 -13 91 19 16 19 30 0 30 -16 0 -18 7 -16 62 0 20 -3
40 -9 43 -14 9 -12 36 4 54 11 13 15 126 21 621 4 333 9 608 11 611 2 4 4 116
5 250 0 134 5 260 9 279 5 19 12 132 14 250 3 118 9 314 13 435 7 208 8 214
15 120 3 -55 4 -126 1 -159 -4 -35 -2 -61 5 -65 13 -8 19 -345 28 -1458 4
-464 8 -843 10 -843 4 0 57 23 63 27 2 1 -7 23 -20 49 l-24 45 40 35 c22 18
45 33 50 33 37 -4 44 2 40 29 -2 15 -7 59 -10 97 -5 54 -3 67 6 58 7 -7 14
-46 17 -87 4 -71 6 -76 27 -76 14 0 33 13 49 35 20 26 35 35 56 35 19 0 33 7
40 20 6 12 22 25 36 30 13 5 23 13 22 17 0 5 2 16 7 26 4 10 5 41 2 68 -4 32
-2 58 6 70 9 14 9 22 1 27 -8 5 -11 102 -12 327 0 176 -3 610 -6 965 -5 475
-4 674 5 754 9 83 9 111 1 114 -16 5 -16 82 0 82 8 0 9 31 4 118 -4 64 -9 290
-10 502 -1 276 -5 391 -14 407 -7 12 -12 38 -12 57 l0 36 -272 0 -273 0 1
-187z"/>
<path d="M4727 9598 c-33 -7 -53 -18 -64 -35 l-16 -24 -13 30 -13 31 -261 0
-261 0 4 -667 c2 -384 0 -675 -5 -685 -7 -14 -5 -18 10 -18 19 0 19 17 21 587
1 323 4 590 7 595 3 4 36 8 75 8 l69 0 0 -137 c1 -180 10 -575 20 -783 5 -124
7 -43 8 328 l2 492 79 0 80 0 2 -397 c1 -219 5 -470 8 -558 6 -116 8 -23 9
338 l2 497 99 0 c93 0 132 -10 95 -24 -8 -3 -12 -10 -9 -16 3 -5 2 -10 -2 -10
-16 0 -14 -418 2 -485 8 -35 16 -142 19 -259 4 -148 8 -201 18 -207 11 -7 14
83 18 479 l5 487 41 3 41 3 6 -203 c4 -112 7 -312 7 -445 0 -215 7 -282 23
-241 3 7 6 -2 6 -19 1 -18 -4 -33 -9 -33 -7 0 -7 -6 0 -20 8 -15 8 -20 -2 -20
-9 -1 -8 -3 2 -9 11 -7 474 -17 524 -12 6 1 -2 13 -16 29 -49 50 -51 68 -50
357 1 312 -2 301 92 291 30 -4 81 -9 113 -12 39 -5 57 -11 57 -20 0 -8 -4 -14
-9 -14 -5 0 -7 -9 -4 -20 5 -19 6 -19 18 -4 21 29 36 -38 41 -181 6 -153 19
-219 50 -261 27 -35 53 -103 47 -121 -3 -7 0 -13 6 -13 6 0 2 -9 -8 -19 -13
-13 -37 -21 -68 -23 -75 -5 256 -18 515 -21 l233 -2 -27 22 c-15 11 -33 19
-41 16 -7 -3 -13 0 -13 6 0 6 -6 11 -14 11 -8 0 -17 8 -20 18 -7 20 -50 42
-82 42 -52 0 -52 -1 -46 173 3 102 9 165 16 169 6 4 25 8 41 8 27 0 34 6 58
58 61 126 179 211 296 213 35 0 41 2 25 9 -12 5 -24 21 -27 39 -5 26 -14 32
-54 45 -26 8 -42 15 -35 15 6 1 12 6 12 12 0 7 -15 9 -42 5 -24 -3 -35 -3 -25
0 16 5 14 9 -14 30 -18 13 -41 24 -51 24 -10 0 -18 5 -18 11 0 5 -4 8 -9 4 -6
-3 -18 3 -28 13 -10 10 -30 24 -45 31 -16 8 -28 18 -28 23 0 4 -7 8 -15 8 -8
0 -24 6 -35 13 -17 10 -22 9 -31 -3 -8 -12 -9 -10 -4 8 4 13 2 22 -4 22 -6 0
-11 -5 -11 -11 0 -5 -5 -7 -11 -4 -6 4 -8 13 -5 21 3 9 0 11 -11 7 -9 -4 -14
-2 -11 3 4 5 -7 10 -23 11 -34 3 -95 46 -104 74 -4 11 -26 28 -50 39 -24 11
-46 24 -50 30 -3 5 -12 7 -20 3 -8 -3 -15 0 -15 5 0 14 -106 62 -136 62 -13 0
-24 5 -24 11 0 6 -8 8 -19 4 -11 -3 -25 1 -34 9 -8 8 -23 15 -33 14 -11 -1
-46 4 -79 11 -33 6 -100 14 -150 16 -113 6 -197 15 -210 23 -5 4 -21 8 -35 10
-14 2 -33 10 -42 19 -10 9 -18 13 -18 10 0 -4 -22 2 -50 13 -55 22 -172 51
-198 49 -9 -1 -39 -6 -65 -11z"/>
<path d="M3925 9591 c-3 -6 -3 -203 -1 -438 3 -235 2 -533 -1 -661 l-6 -233
-71 3 -71 3 -6 210 c-3 116 -7 414 -8 663 -1 412 -2 452 -17 452 -16 0 -17
-35 -12 -423 6 -463 4 -527 -19 -527 -8 0 -37 24 -64 53 -27 28 -49 48 -50 42
-3 -24 -17 44 -19 90 -2 61 -11 89 -27 93 -7 1 -13 -2 -13 -6 0 -5 -6 -9 -13
-9 -8 0 -45 -7 -83 -16 -38 -9 -115 -22 -171 -28 -97 -11 -103 -14 -99 -34 3
-14 -2 -22 -13 -23 -9 -1 -25 -4 -36 -6 -11 -2 -31 -5 -45 -5 -58 -2 54 -41
118 -41 38 0 42 -11 42 -121 l0 -89 -112 -2 c-62 0 -97 -3 -78 -4 19 -2 92 -9
161 -15 l127 -11 4 -117 c3 -64 1 -123 -3 -133 -8 -15 16 -16 301 -17 l310 0
0 674 c0 405 -4 676 -9 680 -5 3 -12 1 -16 -4z"/>
<path d="M9675 9530 c2 -4 -7 -95 -21 -201 -37 -289 -74 -609 -74 -651 l0 -38
-42 1 c-24 0 -63 4 -88 7 l-45 7 29 22 c15 12 25 27 21 33 -3 5 0 10 8 10 8 0
18 7 21 15 4 10 16 15 33 13 l28 -3 17 125 c9 69 17 160 17 202 l1 78 -57 -6
c-31 -3 -61 -8 -66 -11 -5 -3 -27 12 -50 33 -38 36 -39 37 -22 9 43 -68 50
-91 50 -160 0 -146 -91 -260 -227 -285 -59 -11 -98 -2 -98 21 0 6 -7 8 -16 5
-9 -3 -12 -2 -9 4 4 6 -8 22 -25 36 -17 15 -37 43 -46 62 -17 42 -44 200 -37
219 3 7 -1 13 -7 13 -7 0 -3 8 8 19 23 19 30 37 10 25 -7 -4 -8 -3 -4 5 6 9
11 9 22 0 12 -10 13 -9 8 6 -5 13 -4 16 5 10 20 -12 -3 26 -32 53 -54 51 -162
33 -215 -36 -27 -35 -27 -37 -27 -186 0 -140 -2 -154 -24 -191 -12 -22 -30
-44 -39 -49 -14 -8 -14 -10 3 -18 16 -6 14 -7 -5 -2 -14 3 -37 8 -52 11 -21 4
-25 9 -19 22 5 9 15 30 22 46 7 17 15 33 17 36 1 4 -10 5 -25 3 l-28 -4 26 10
c26 11 27 14 34 128 12 203 21 252 56 288 18 19 50 37 77 44 26 7 51 16 55 20
10 9 -62 96 -100 121 -35 23 -145 26 -194 4 l-34 -14 47 -1 c39 0 52 -5 83
-36 20 -19 43 -50 51 -69 19 -47 18 -56 -4 -22 -10 15 -22 24 -26 20 -4 -4 -4
0 0 10 5 13 2 16 -9 11 -9 -3 -36 6 -61 21 -25 15 -46 24 -46 20 0 -4 -12 1
-27 10 -27 17 -27 17 3 -16 42 -45 69 -101 83 -171 25 -121 -25 -296 -109
-377 -53 -51 -151 -101 -201 -101 -21 0 -41 -4 -44 -10 -3 -5 -28 -10 -55 -10
-32 0 -50 -5 -53 -14 -5 -12 -13 -13 -38 -6 -18 5 -37 14 -43 20 -13 13 -121
13 -166 -1 -19 -5 -118 -12 -220 -14 -102 -3 -204 -7 -228 -10 -51 -8 -154 4
-147 16 3 4 12 6 20 2 17 -6 21 12 5 22 -5 3 -10 15 -10 26 0 10 -7 19 -14 19
-18 0 -66 43 -66 58 0 18 -22 25 -32 11 -6 -10 -8 -8 -6 8 2 12 -1 23 -7 25
-5 2 -13 -17 -16 -42 l-6 -45 -1 53 c-1 28 -6 52 -12 52 -5 0 -10 -6 -10 -13
0 -8 -6 -14 -13 -14 -9 0 -12 9 -9 26 4 21 3 24 -9 14 -20 -16 -120 4 -112 23
3 8 -1 14 -11 14 -9 0 -16 -7 -16 -16 0 -11 -5 -14 -16 -10 -8 3 -24 1 -35 -4
-15 -8 -19 -7 -19 5 0 10 10 15 30 15 17 0 30 5 30 10 0 14 -57 13 -62 -1 -2
-6 -19 -12 -38 -14 -37 -3 -55 -25 -21 -25 12 0 21 -5 21 -11 0 -6 -6 -9 -14
-6 -22 9 -27 -5 -8 -20 16 -14 16 -14 -1 -9 -10 3 -22 6 -27 6 -5 0 -11 10
-13 23 -4 19 -4 19 -6 -5 -1 -22 -6 -27 -33 -30 -17 -2 -33 -8 -35 -15 -3 -7
3 -9 16 -6 12 3 21 1 21 -6 0 -6 -7 -11 -15 -11 -23 0 -18 -11 24 -55 101
-103 120 -328 40 -472 -18 -32 -25 -54 -18 -58 7 -5 7 -11 0 -19 -6 -7 -7 -17
-3 -21 4 -5 1 -4 -7 0 -11 6 -13 4 -8 -9 5 -13 3 -17 -7 -13 -9 4 -13 1 -10
-6 5 -15 -73 -50 -93 -42 -11 3 -13 1 -9 -10 6 -16 -4 -20 -20 -6 -5 4 -31 3
-59 -4 -44 -10 -21 -12 200 -17 138 -4 266 -6 285 -5 l35 2 5 263 5 264 29 25
c27 23 33 24 120 19 50 -3 246 -8 436 -11 190 -3 539 -12 775 -20 237 -8 574
-17 750 -20 459 -8 525 -12 553 -39 59 -53 55 115 55 -2231 0 -1182 4 -2467 7
-2855 4 -388 5 -711 2 -717 -2 -7 -12 -13 -21 -14 -10 0 -11 -2 -3 -6 13 -5
16 -71 6 -110 -4 -13 -13 -23 -22 -23 -75 0 130 -28 391 -53 l47 -5 0 3465 c0
3129 -2 3463 -16 3449 -8 -9 -12 -20 -9 -26 3 -5 -1 -10 -9 -10 -20 0 -20 14
0 45 9 14 12 25 6 25 -5 0 -12 -9 -15 -20 -7 -26 -27 -26 -27 0 0 19 -1 19
-20 3 -11 -10 -20 -23 -20 -30 0 -7 -4 -13 -10 -13 -5 0 -10 -9 -10 -21 0 -21
0 -21 -20 2 -16 19 -21 21 -29 10 -5 -7 -14 -11 -20 -7 -7 5 -9 -3 -4 -26 7
-41 13 -49 13 -19 0 12 6 29 14 36 12 12 15 11 20 -8 9 -33 7 -44 -4 -27 -8
13 -10 13 -10 -2 0 -9 6 -18 13 -20 6 -3 -2 -5 -20 -5 -23 0 -33 6 -38 21 -7
20 -7 20 -12 1 -3 -12 3 -26 18 -38 19 -15 20 -20 8 -28 -12 -8 -12 -10 1 -19
8 -5 10 -10 4 -10 -15 0 -39 29 -31 37 4 3 2 14 -4 25 -10 19 -11 19 -33 -5
-13 -14 -31 -42 -40 -63 l-17 -39 6 40 5 40 -15 -30 -14 -30 6 30 c3 17 9 35
13 40 4 6 10 19 13 30 6 17 4 17 -13 -4 -11 -13 -20 -32 -20 -42 0 -11 -7 -19
-17 -20 -11 0 -13 -3 -5 -6 6 -2 12 -17 12 -31 0 -19 -3 -23 -9 -13 -7 11 -10
11 -15 0 -6 -14 0 140 10 223 6 55 -4 64 -76 67 -25 1 -64 4 -87 5 -24 2 -41
0 -38 -4z"/>
<path d="M9160 9444 c0 -19 -32 -189 -37 -197 -3 -4 -11 0 -18 10 -7 10 -17
14 -21 10 -5 -4 -2 -12 5 -16 7 -5 11 -13 7 -19 -3 -5 17 -3 44 6 55 18 55 19
64 115 3 32 8 62 11 67 3 4 93 5 200 2 143 -4 195 -2 195 7 0 8 -53 11 -187
11 -104 0 -205 3 -225 6 -21 4 -38 3 -38 -2z"/>
<path d="M8371 9291 c-26 -24 -31 -36 -31 -76 0 -65 22 -102 68 -116 108 -32
163 102 77 188 -41 41 -73 42 -114 4z"/>
<path d="M8120 9191 c-93 -76 -118 -248 -49 -335 29 -37 67 -54 135 -62 l58
-7 -23 24 c-13 13 -27 34 -32 47 -15 38 9 159 29 149 4 -2 17 7 29 20 21 21
21 23 3 23 -10 0 -32 -11 -48 -25 -44 -37 -62 -30 -57 23 2 26 -7 28 -29 6
-15 -14 -16 -14 -16 1 0 26 29 74 72 121 l41 44 -39 0 c-29 0 -49 -8 -74 -29z"/>
<path d="M9147 9117 c-56 -56 -76 -119 -58 -186 7 -25 20 -54 29 -65 19 -21
72 -46 99 -46 22 0 92 42 78 47 -6 2 -10 40 -9 90 0 84 12 128 38 145 7 4 2
16 -14 32 -19 21 -33 26 -72 26 -44 0 -53 -4 -91 -43z"/>
<path d="M6490 8793 c-8 -4 -30 -17 -48 -31 -28 -21 -35 -23 -43 -11 -5 8 -9
10 -10 4 -2 -31 -10 -50 -31 -81 -13 -18 -26 -34 -30 -34 -4 0 -5 -7 -2 -15 4
-8 1 -15 -6 -15 -17 0 -4 49 19 75 27 30 34 46 19 40 -31 -12 -67 -87 -74
-153 -9 -82 10 -209 35 -237 10 -11 26 -34 36 -51 17 -29 94 -89 103 -80 6 7
-32 55 -44 56 -13 0 -37 46 -41 80 -7 65 -4 169 7 210 8 29 24 55 46 73 28 24
34 37 34 67 0 33 5 41 34 59 18 12 45 21 59 21 14 0 28 4 32 10 3 5 13 6 22 3
11 -4 14 -3 9 5 -7 12 -98 15 -126 5z"/>
<path d="M7175 8614 c-16 -8 -33 -21 -37 -27 -4 -7 -8 -489 -10 -1072 -1 -583
-2 -1125 -2 -1205 -1 -80 3 -793 8 -1585 9 -1573 5 -1478 67 -1510 38 -20 296
-34 322 -18 6 4 7 1 2 -7 -6 -10 0 -11 29 -6 26 5 36 3 36 -6 0 -10 2 -10 9 0
9 15 99 12 206 -7 33 -5 94 -11 136 -13 43 -2 72 -6 65 -10 -6 -4 1 -8 17 -8
16 0 26 -4 22 -10 -3 -5 1 -10 10 -10 10 0 13 5 9 12 -5 8 -2 9 10 5 10 -4 23
-7 29 -7 8 0 8 -3 -1 -9 -9 -5 11 -11 54 -15 36 -4 96 -13 133 -21 41 -8 108
-12 176 -10 63 2 101 -1 90 -5 -14 -6 -7 -8 26 -8 25 0 54 -4 65 -9 10 -6 42
-14 69 -18 28 -4 64 -13 80 -20 37 -17 101 -27 185 -31 84 -3 141 -14 134 -25
-3 -5 10 -9 28 -9 25 0 29 -3 18 -10 -12 -8 -9 -10 13 -10 15 0 27 5 27 10 0
12 71 3 80 -10 3 -4 30 -10 60 -14 30 -4 75 -16 99 -27 46 -20 77 -26 51 -9
-13 8 -13 10 2 10 9 0 20 -4 23 -10 3 -5 23 -10 44 -10 22 0 44 -6 51 -15 7
-8 20 -15 30 -15 9 0 20 -3 24 -7 12 -13 81 -33 112 -33 24 0 33 5 38 23 3 12
6 1291 6 2842 0 2801 0 2820 -20 2853 -11 18 -30 36 -43 41 -23 9 -206 15
-972 31 -427 9 -968 23 -1400 35 -151 4 -185 3 -210 -11z m1120 -494 c83 -5
211 -13 286 -16 l137 -6 -7 -26 c-9 -32 -22 -33 -36 -4 -9 21 -17 22 -147 21
l-137 0 -3 -57 c-2 -42 -7 -58 -19 -60 -13 -2 -14 5 -5 57 5 34 8 63 5 65 -6
6 -53 8 -175 7 -104 -1 -112 -2 -123 -23 -6 -13 -10 -16 -7 -7 10 36 -10 44
-121 46 -59 2 -137 7 -173 13 -84 12 307 5 525 -10z m40 -220 c44 -5 141 -12
215 -14 252 -10 445 -18 480 -21 19 -2 101 -3 183 -4 l147 -1 -1 -37 c-2 -31
-3 -33 -6 -10 -2 15 -7 28 -11 28 -17 3 -124 7 -492 18 -217 7 -408 13 -425
14 -30 2 -30 1 -45 -73 l-15 -75 -40 -2 -40 -2 33 8 c18 5 34 10 36 12 2 2 6
34 9 71 l5 68 -32 4 c-73 12 -255 16 -261 6 -7 -11 -65 -9 -195 6 -91 10 -89
9 -97 18 -9 9 447 -2 552 -14z m-25 -215 c249 -19 315 -23 368 -24 30 -1 41
-4 36 -13 -4 -6 -8 -36 -10 -66 -1 -30 -7 -59 -14 -66 -9 -8 -11 -5 -9 14 2
14 0 31 -5 38 -5 9 -1 19 10 28 11 9 14 13 7 10 -17 -9 -28 15 -12 24 19 13
-17 18 -163 24 l-128 6 0 -49 c0 -28 -5 -53 -11 -56 -6 -4 -8 -14 -5 -22 8
-20 -22 -42 -48 -35 -20 6 -19 6 4 12 23 5 26 12 33 74 4 38 5 72 2 75 -4 3
-72 6 -153 6 l-147 0 3 -24 c6 -38 -8 -132 -19 -126 -5 4 -9 1 -9 -4 0 -6 -13
-11 -30 -11 -20 0 -30 5 -30 15 0 9 9 15 23 15 36 0 43 12 46 73 l2 57 -55 0
c-71 0 -153 18 -153 33 0 16 202 12 467 -8z m850 -46 c162 -7 297 -16 300 -20
3 -4 1 -51 -4 -103 l-9 -96 -34 0 -33 0 0 100 0 100 -62 0 c-167 2 -577 25
-585 35 -5 4 24 5 62 2 39 -4 203 -12 365 -18z m-570 -199 c395 -23 541 -31
665 -35 72 -3 148 -8 171 -10 l41 -6 -3 -47 c-1 -26 -3 -47 -4 -47 -1 0 -3
-21 -5 -48 -5 -60 -10 -67 -46 -67 l-29 0 0 99 0 99 -57 6 c-32 4 -107 9 -168
11 -60 1 -185 6 -277 10 l-166 8 -5 -24 c-4 -22 -4 -22 -6 4 0 16 -5 25 -11
22 -13 -8 -7 -45 9 -54 9 -6 7 -10 -8 -14 -18 -4 -21 -1 -21 29 0 19 -6 36
-12 38 -7 3 -70 7 -140 10 l-128 5 0 -67 c0 -111 -14 -130 -20 -27 l-5 90 -40
4 c-32 2 -36 5 -20 11 28 12 83 12 285 0z m-515 -215 c580 -31 938 -52 1120
-65 72 -5 163 -10 203 -10 68 0 71 -1 61 -19 -7 -11 -9 -26 -4 -37 10 -24 15
-164 5 -164 -12 0 -6 -58 7 -71 9 -9 8 -17 -4 -36 -9 -13 -12 -27 -8 -31 4 -4
10 -1 12 6 7 18 23 4 23 -19 0 -11 -7 -22 -15 -25 -11 -5 -15 -22 -15 -70 0
-54 -3 -64 -17 -65 -12 -1 -9 -3 7 -8 32 -9 49 -71 19 -71 -16 0 -19 -8 -19
-43 0 -24 5 -48 12 -55 6 -6 11 -29 10 -51 -1 -22 3 -43 8 -46 17 -10 11 -33
-10 -40 -32 -10 -26 -105 7 -105 13 0 13 -2 2 -16 -12 -14 -33 -15 -174 -9
-88 3 -203 11 -255 15 -52 5 -99 10 -103 10 -5 0 -5 6 -1 13 6 10 4 10 -7 0
-14 -14 -53 -18 -46 -5 3 4 -45 8 -107 9 -61 2 -208 12 -326 22 -118 11 -273
23 -345 27 -71 3 -134 10 -140 14 -5 4 -46 11 -90 16 -57 5 -73 9 -55 14 23 7
23 8 -10 13 -19 3 23 4 94 2 70 -2 125 -1 122 3 -8 7 -16 8 -148 10 -54 1 -98
5 -98 10 0 4 39 7 88 8 80 0 87 2 84 20 -2 17 -2 18 8 2 6 -11 23 -18 40 -18
27 0 28 2 32 53 2 31 -1 54 -7 54 -55 4 -81 8 -86 15 -3 5 -33 9 -66 11 -34 1
-56 5 -49 9 7 5 5 8 -6 8 -13 0 -18 -8 -18 -29 0 -17 -5 -33 -11 -37 -8 -4
-10 9 -8 42 l4 49 90 6 90 5 -95 2 c-63 2 -90 5 -80 12 8 5 48 7 88 4 63 -4
74 -2 69 10 -4 9 -2 18 3 21 6 4 10 -1 10 -9 0 -12 10 -16 35 -16 l35 0 0 50
c0 44 -3 50 -24 56 -34 8 -46 -2 -47 -39 -2 -30 -2 -29 -8 7 -5 35 -10 41 -39
48 -19 5 -53 8 -75 6 l-42 -3 2 -62 c1 -35 -3 -63 -8 -63 -10 0 -12 11 -13
104 l-1 68 145 -5 c92 -3 123 -2 85 3 -33 4 -89 8 -125 9 -86 2 -59 19 34 22
114 4 116 5 116 54 0 26 5 45 13 48 6 2 -10 3 -38 3 -33 -1 -54 4 -61 14 -8 9
-26 13 -54 12 -29 -2 -40 0 -35 9 5 8 1 9 -14 4 -12 -3 -21 -2 -21 4 0 5 -10
12 -22 14 -13 2 60 6 162 8 l185 3 -190 6 c-168 5 -190 11 -55 14 41 1 45 3
51 31 4 17 7 22 8 13 1 -19 6 -23 44 -32 24 -6 27 -3 27 18 0 54 -12 84 -36
89 -13 2 -25 -1 -27 -7 -2 -7 -10 -4 -21 7 -11 10 -33 17 -58 17 -66 0 -41 24
33 31 l64 6 -60 2 c-33 1 -69 6 -80 11 -33 14 229 11 470 -5 121 -8 306 -19
410 -25 105 -6 242 -15 305 -20 63 -5 147 -10 186 -10 39 0 86 -3 103 -6 l31
-7 -1 -110 c-2 -80 1 -112 10 -115 10 -3 11 22 6 114 -4 66 -9 121 -12 124 -2
2 -54 7 -116 11 -62 4 -188 12 -282 18 -377 25 -808 51 -950 57 -96 5 -154 11
-162 19 -7 7 -33 16 -58 19 -25 4 -43 11 -40 17 8 11 -2 12 320 -6z m389
-1553 c6 -3 24 -6 40 -7 17 0 56 -2 86 -3 39 -2 51 -5 40 -12 -10 -6 7 -9 55
-8 92 3 235 -11 260 -25 11 -6 45 -13 75 -15 99 -6 108 -7 105 -12 -2 -3 35
-5 81 -4 46 1 82 -2 79 -5 -4 -7 87 -13 204 -14 41 -1 57 -4 45 -9 -13 -6 -6
-7 19 -4 42 5 67 -1 67 -16 0 -5 -4 -6 -10 -3 -6 4 -7 -1 -3 -11 4 -12 3 -15
-5 -10 -7 4 -12 2 -12 -6 0 -8 -3 -9 -8 -2 -4 5 -20 10 -37 9 -16 -1 -49 4
-72 11 -24 7 -40 8 -37 3 6 -11 -117 0 -130 12 -5 4 -22 5 -37 2 -35 -7 -97
16 -77 28 8 5 -5 7 -32 6 -25 -1 -63 2 -85 6 -31 6 -36 5 -25 -4 12 -9 11 -10
-5 -4 -34 12 -248 36 -280 31 -40 -6 -289 17 -279 26 3 4 -7 4 -23 -1 -31 -9
-70 2 -42 12 8 2 1 3 -15 1 -16 -2 -34 0 -40 5 -6 5 -29 11 -51 14 l-40 4 45
3 45 3 -45 8 c-28 4 -11 5 45 2 50 -3 94 -8 99 -11z m-499 -252 c123 -14 274
-31 310 -35 17 -2 73 -7 125 -10 52 -4 142 -13 200 -20 58 -8 138 -16 178 -19
41 -3 77 -8 81 -11 5 -2 28 -6 52 -9 155 -16 368 -36 449 -41 145 -8 231 -15
275 -21 l40 -5 -3 -120 -3 -119 -77 5 -77 4 75 -10 c41 -6 76 -12 78 -14 2 -2
1 -53 -3 -114 l-8 -110 -31 6 c-79 14 -95 31 -97 103 0 29 -2 31 -9 15 -5 -11
-9 -14 -9 -6 -1 7 -7 11 -13 8 -19 -7 -58 10 -58 26 0 8 -11 19 -25 25 -17 8
-25 8 -25 1 0 -5 -10 -3 -22 5 -28 20 -74 21 -82 1 -3 -8 -15 -15 -26 -15 -11
0 -20 -7 -20 -16 0 -8 5 -12 10 -9 6 3 10 1 10 -6 0 -8 -12 -10 -37 -5 -21 3
-65 6 -99 6 l-60 0 2 30 c2 28 0 30 -34 30 -21 1 -84 5 -142 10 -58 4 -107 5
-110 1 -3 -5 -12 -11 -20 -14 -10 -4 -8 -6 7 -6 17 -1 21 -5 16 -18 -4 -11 -8
-12 -11 -5 -6 18 -22 14 -23 -5 0 -15 -2 -15 -9 2 -17 44 -63 55 -68 18 -3
-23 -42 -34 -42 -12 0 6 7 9 15 5 8 -3 15 -1 15 4 0 19 -31 10 -40 -12 -8 -20
-9 -18 -9 14 -1 32 -4 36 -23 33 -34 -7 -44 -22 -30 -45 12 -19 9 -20 -70 -15
-95 5 -283 22 -345 31 -29 4 -43 12 -46 25 -3 11 0 19 6 19 7 0 5 5 -3 10 -8
5 -12 10 -8 10 4 0 2 14 -4 30 -11 32 -29 46 -69 53 -24 5 -24 5 -19 -70 l5
-74 -30 3 c-26 3 -30 7 -31 33 -1 17 -3 37 -5 45 -2 8 6 19 19 25 25 11 30 35
7 35 -17 0 -21 45 -5 55 14 9 12 25 -3 25 -10 0 -12 15 -9 60 2 34 1 60 -4 58
-5 -2 -9 1 -9 7 0 5 10 8 23 7 18 -3 22 1 22 23 0 15 4 24 10 20 6 -3 10 -47
9 -98 0 -61 -3 -85 -9 -72 -8 19 -9 19 -9 -3 -1 -22 2 -23 70 -20 39 1 72 5
74 9 3 3 -6 34 -20 68 -13 34 -23 63 -22 64 5 10 -25 38 -57 51 -37 15 -40 15
-60 -1 -20 -17 -20 -17 -7 0 16 20 15 22 -17 32 -21 6 -23 4 -17 -15 5 -15 4
-20 -4 -16 -6 4 -11 16 -11 27 0 11 -7 19 -17 19 -13 0 -14 -3 -6 -8 16 -10
13 -149 -2 -149 -33 0 -45 -4 -40 -14 8 -13 -167 -11 -205 3 -23 8 -25 14 -27
80 -2 67 4 87 28 88 3 0 4 -20 2 -45 -5 -56 13 -119 33 -111 7 3 16 1 19 -4
13 -22 33 5 39 53 4 29 7 57 8 62 1 6 -2 21 -6 34 -8 22 -6 23 33 18 23 -2 41
0 41 4 0 8 -22 13 -42 10 -67 -9 -90 -10 -68 -2 l25 9 -27 1 c-16 1 -28 -3
-28 -9 0 -5 -10 -9 -22 -9 -20 1 -20 2 -4 6 15 4 16 7 5 15 -16 11 167 4 316
-12z m-137 -222 c76 -10 82 -13 82 -35 0 -12 -3 -23 -8 -23 -4 0 -7 -40 -7
-90 l0 -89 -75 6 c-41 3 -104 11 -140 17 l-65 11 -3 78 c-2 46 1 84 7 91 6 8
9 21 5 30 -5 14 3 16 57 16 35 0 101 -5 147 -12z m142 -303 c629 -69 809 -88
960 -100 91 -8 244 -23 340 -34 96 -10 223 -22 283 -26 59 -4 107 -11 107 -16
0 -5 -10 -9 -22 -10 -22 0 -22 -1 -3 -9 18 -8 17 -9 -8 -9 -16 -1 -26 2 -24 7
3 4 -14 5 -38 4 -24 -2 -52 1 -63 7 -18 9 -20 6 -26 -47 -3 -31 -9 -80 -12
-108 -4 -28 -2 -54 3 -57 5 -3 49 -8 98 -12 141 -10 114 -18 -35 -11 -74 3
-137 6 -140 6 -3 0 -3 27 -2 60 3 42 8 60 17 60 8 0 17 -5 20 -10 4 -6 11 -8
16 -4 15 9 2 21 -30 27 -21 5 -28 11 -26 24 2 10 4 28 4 41 1 14 10 26 24 32
19 8 17 9 -16 9 l-38 1 3 -120 c2 -66 3 -120 2 -120 0 0 -25 4 -55 10 -30 5
-124 16 -209 25 -154 15 -621 66 -965 105 -99 11 -247 28 -329 38 l-149 17 3
70 c7 157 7 158 -20 166 -57 16 117 8 330 -16z m65 -281 c348 -39 896 -98
1070 -114 66 -6 158 -18 205 -25 83 -14 283 -35 328 -35 12 0 22 -4 22 -10 0
-13 -70 -13 -126 1 -25 6 -47 9 -50 7 -4 -4 -15 -109 -17 -155 0 -7 -5 -13
-10 -13 -6 0 -7 -3 -4 -6 3 -4 2 -15 -3 -25 -9 -15 -5 -19 22 -23 75 -12 124
-13 135 -4 7 5 20 8 30 5 13 -3 12 -5 -7 -7 -24 -2 -24 -3 5 -11 17 -4 -34 -6
-120 -2 -82 3 -152 7 -154 9 -2 2 3 4 12 4 14 0 17 10 17 50 0 46 2 50 24 50
14 0 28 5 31 10 4 6 -7 10 -26 10 l-32 0 6 46 c2 26 11 50 18 55 10 6 6 9 -13
9 -16 0 -28 -3 -28 -7 -1 -5 -2 -54 -3 -110 -2 -57 -5 -105 -8 -107 -2 -2 -49
2 -104 9 -116 16 -433 51 -550 61 -44 4 -72 9 -63 11 10 3 91 -2 180 -10 90
-8 186 -14 213 -13 28 1 69 -1 93 -4 39 -6 42 -5 42 17 0 12 5 23 10 23 6 0 8
-11 4 -25 -4 -15 -2 -25 5 -25 6 0 12 12 12 28 l1 27 7 -30 c7 -29 7 -30 13
-6 9 32 5 37 -40 52 -40 12 -62 27 -62 39 0 4 17 -1 37 -11 49 -25 63 -24 63
4 1 21 1 22 15 3 13 -17 15 -18 15 -3 0 9 4 17 10 17 5 0 7 -7 4 -15 -4 -8 -2
-15 4 -15 9 0 26 30 20 35 -2 2 -29 6 -60 9 -51 6 -58 4 -58 -11 0 -13 -3 -14
-8 -5 -5 7 -34 14 -66 17 -32 3 -62 8 -67 11 -17 10 -9 21 14 18 12 -2 37 -5
55 -8 23 -4 32 -1 32 9 0 8 -9 16 -20 16 -28 2 -33 3 -47 12 -8 5 -13 4 -13
-2 0 -13 -22 -10 -32 4 -5 6 -8 6 -8 -2 0 -8 -6 -8 -24 0 -14 7 -22 17 -18 26
3 8 1 12 -5 8 -5 -3 -91 2 -189 13 -249 26 -716 79 -794 90 -36 5 -111 12
-168 16 l-103 7 3 -104 3 -103 255 -32 c140 -18 276 -33 302 -33 26 -1 49 -5
52 -9 8 -13 -500 41 -659 70 -69 12 -92 25 -36 20 l37 -4 0 108 c-1 105 -2
109 -26 121 -31 15 -14 14 395 -33z m-96 -264 c135 -16 311 -34 391 -40 80 -6
206 -20 280 -30 74 -11 201 -24 281 -29 166 -12 349 -34 459 -56 41 -8 116
-17 165 -20 110 -7 145 -13 145 -27 0 -11 -133 -4 -164 8 -11 4 -15 -18 -21
-101 -4 -59 -5 -109 -2 -111 3 -3 44 -9 91 -13 48 -5 90 -12 94 -16 4 -4 -29
-5 -72 -1 -43 3 -105 6 -138 6 l-58 0 0 55 c0 52 1 55 26 55 14 0 23 4 19 10
-3 6 -18 10 -32 10 -21 0 -24 3 -19 23 3 12 6 34 6 50 0 21 5 27 23 28 22 0
22 0 -2 10 -49 20 -53 9 -50 -121 3 -74 0 -121 -6 -124 -14 -5 42 -14 183 -27
142 -14 171 -35 32 -25 l-90 8 0 -79 c0 -47 -6 -89 -14 -105 -13 -24 -12 -27
8 -32 11 -3 44 -6 71 -6 63 -1 133 -14 120 -21 -14 -9 -276 14 -275 24 0 4 0
30 0 57 0 48 1 50 28 51 l27 2 -27 4 c-25 4 -28 8 -28 46 0 46 7 61 30 70 9 3
4 6 -12 6 -15 1 -30 -5 -35 -11 -4 -7 -6 -61 -4 -120 1 -60 0 -108 -3 -108 -3
0 -50 6 -104 14 -53 8 -131 17 -172 21 -120 11 -358 42 -327 44 15 0 91 -6
169 -15 77 -8 143 -13 146 -10 3 4 -4 6 -16 6 -12 0 -22 5 -22 11 0 5 -4 7
-10 4 -5 -3 -10 -1 -10 4 0 14 13 14 28 -1 9 -9 12 -8 12 4 0 9 5 20 11 24 8
4 9 0 4 -15 -5 -15 -2 -21 9 -21 9 0 16 -6 17 -12 0 -10 2 -10 6 0 2 6 9 10
14 7 5 -4 6 2 3 12 -5 16 -4 16 8 2 26 -31 45 -29 63 4 l16 32 -6 -35 c-5 -26
-4 -31 4 -20 6 8 11 23 11 33 0 9 5 17 10 17 12 0 12 -2 1 -33 -9 -22 -7 -25
17 -29 26 -4 27 -2 24 28 -3 27 -10 34 -33 39 -32 7 -40 25 -11 25 24 0 64
-29 56 -41 -12 -20 6 -59 26 -59 33 0 27 55 -7 72 -17 8 -28 21 -28 33 0 16 6
20 30 18 29 -2 29 -2 -5 9 -45 15 -44 13 -31 35 8 14 10 14 11 3 0 -10 11 -15
30 -16 32 -1 38 7 18 23 -21 15 -68 16 -68 1 0 -23 -16 -39 -32 -33 -10 4 -13
15 -11 30 4 18 1 23 -14 22 -10 -1 -21 -9 -25 -17 -6 -13 -7 -13 -7 1 -1 11
-10 17 -26 17 -14 0 -26 -7 -28 -17 -3 -9 -5 -6 -6 9 -2 25 -2 25 -18 5 -13
-16 -15 -17 -10 -2 8 21 -11 23 -20 2 -6 -18 -1 -26 19 -29 7 -1 18 -5 25 -9
7 -4 16 0 22 10 7 12 13 14 18 7 11 -16 96 -51 111 -46 8 2 10 -2 6 -12 -5
-12 -10 -14 -19 -6 -6 5 -15 7 -18 3 -4 -3 -7 -1 -7 6 0 7 -4 9 -10 6 -5 -3
-10 -3 -10 2 0 4 -10 9 -22 10 -69 5 -157 23 -163 33 -3 5 -1 11 5 15 5 3 10
1 10 -4 0 -6 5 -11 10 -11 6 0 10 7 10 15 0 8 -4 15 -9 15 -5 0 -17 3 -27 7
-11 4 -15 3 -11 -4 5 -8 -1 -7 -18 0 l-24 12 22 6 c19 4 17 6 -12 12 -55 11
-68 9 -45 -7 16 -12 19 -25 17 -86 -2 -39 -5 -75 -8 -81 -4 -5 -22 -9 -40 -9
l-34 0 -3 97 -3 98 -105 12 c-58 7 -195 24 -305 38 -110 14 -312 39 -450 56
-137 16 -257 31 -265 32 -12 2 -16 -16 -18 -101 -2 -77 1 -103 10 -106 7 -2
89 -14 183 -26 164 -22 245 -38 200 -39 -40 0 -534 75 -542 83 -4 5 17 5 47 1
48 -7 53 -6 42 8 -10 11 -10 16 -1 19 7 2 9 12 4 26 -5 18 -10 20 -20 12 -9
-8 -14 -7 -19 5 -3 8 -9 15 -13 14 -18 -3 -33 2 -33 10 0 4 11 6 25 3 26 -5
32 14 10 30 -6 4 -2 8 8 8 11 0 17 -8 18 -22 1 -22 1 -22 9 2 l8 25 1 -24 c2
-38 8 -21 15 41 6 56 6 57 -21 61 -24 3 -23 4 7 6 39 1 250 -22 607 -68 127
-17 393 -46 590 -66 197 -19 380 -40 406 -45 53 -11 93 -13 85 -5 -9 9 -482
70 -803 105 -533 57 -986 116 -910 119 25 1 30 5 31 29 1 15 2 38 4 52 9 122
13 150 22 150 6 0 121 -13 257 -30z m241 -369 c0 -10 142 -37 240 -46 102 -9
161 -15 219 -21 29 -3 51 -2 48 3 -3 4 5 8 17 8 22 0 23 -3 22 -80 -1 -57 -5
-80 -13 -79 -7 1 -22 2 -34 3 -19 1 -20 6 -17 61 4 71 24 62 -182 85 -263 29
-313 38 -316 58 -1 9 2 17 7 17 5 0 9 -4 9 -9z m-630 -342 c0 -219 0 -220 -21
-217 -20 3 -22 9 -21 81 0 60 -3 77 -14 77 -8 0 -14 4 -14 10 0 5 7 7 15 4 11
-5 15 1 15 24 0 17 -6 33 -12 36 -10 5 -10 7 0 12 7 3 12 24 12 49 0 33 -5 46
-22 59 l-23 16 25 -2 c23 -3 25 0 23 35 -2 31 1 37 17 37 19 0 20 -8 20 -221z
m205 192 c271 -30 385 -43 595 -67 129 -14 300 -38 380 -54 218 -43 216 -43
345 -44 66 -1 161 -10 210 -19 50 -9 111 -19 138 -22 l47 -6 0 -261 0 -260
-22 6 c-13 3 -47 11 -75 17 -29 7 -53 16 -53 20 0 4 -26 10 -58 14 -32 3 -65
11 -73 17 -14 10 5 8 104 -8 l37 -7 0 66 c0 81 -3 83 -125 87 -132 3 -146 5
-157 23 -5 10 -21 17 -36 16 -25 0 -25 -1 -7 -10 15 -7 8 -8 -25 -4 -148 17
-216 28 -221 37 -12 18 -18 -21 -12 -74 7 -59 15 -68 58 -67 17 1 22 3 13 6
-26 7 -22 22 5 20 22 -1 47 -19 47 -33 0 -6 -109 -1 -268 12 -71 6 -155 22
-187 35 -16 7 -38 13 -47 14 -10 2 -19 3 -20 4 -2 1 -32 4 -68 7 -36 2 -72 7
-80 11 -8 3 -37 7 -65 9 -27 2 -81 11 -120 20 -38 8 -92 20 -119 26 -38 9 -45
13 -30 18 11 5 -21 10 -78 15 -135 10 -132 5 -138 212 -4 145 -3 166 11 174 9
4 19 6 22 3 6 -7 310 -49 1037 -145 85 -11 223 -32 305 -45 83 -14 195 -27
250 -30 94 -5 99 -4 80 11 -20 16 -20 17 5 13 14 -2 24 -9 22 -16 -1 -6 2 -12
8 -12 5 0 10 -7 10 -16 0 -8 5 -12 10 -9 6 3 10 19 10 35 0 23 -5 31 -22 34
-49 10 -94 17 -123 19 -16 1 -32 5 -35 9 -3 3 -18 10 -33 13 -23 6 -27 4 -27
-15 0 -21 -3 -22 -37 -16 -47 8 -529 76 -793 111 -107 15 -269 38 -360 51 -91
14 -207 31 -259 39 -51 7 -98 19 -105 25 -8 9 -4 11 19 6 17 -3 66 -10 110
-15z m1867 -243 c15 -5 31 -7 36 -4 6 3 13 -1 16 -10 3 -8 2 -13 -3 -10 -13 8
-11 -58 2 -67 9 -6 9 -10 1 -13 -8 -3 -10 -21 -6 -52 4 -41 6 -249 3 -399 -1
-52 -1 -53 -26 -41 -19 8 -25 19 -25 43 0 17 -5 36 -11 42 -16 16 -2 33 27 33
39 0 23 25 -17 27 -63 3 -65 3 -37 18 15 8 29 24 33 35 9 29 -12 60 -40 60
-19 0 -27 -7 -34 -32 -9 -32 -9 -32 -10 -6 -1 15 7 33 17 40 9 7 18 26 19 42
2 23 -1 27 -17 23 -11 -3 -22 -2 -25 3 -7 11 31 20 83 20 29 0 42 4 40 12 -3
7 -26 11 -60 11 -45 -1 -56 2 -51 13 3 8 10 13 17 12 6 -1 21 3 34 10 24 14
30 60 10 80 -18 18 -56 15 -61 -5 -4 -14 -5 -13 -6 4 -1 18 6 23 33 28 64 12
53 63 -19 89 l-40 15 45 -5 c25 -3 57 -10 72 -16z"/>
<path d="M8410 6986 l0 -84 38 -6 c20 -3 69 -8 107 -11 39 -4 76 -12 83 -18 9
-7 109 -11 300 -11 l287 -1 3 50 c3 49 2 50 -25 51 -65 1 -442 25 -485 30
l-48 6 0 -40 0 -40 163 -8 c99 -6 139 -10 102 -12 -33 -2 -111 -1 -172 3
l-113 7 0 53 c0 53 0 54 33 58 26 4 24 4 -8 3 -24 0 -41 -6 -41 -13 -1 -7 -2
-26 -3 -43 -1 -30 -2 -30 -56 -30 -46 0 -55 3 -55 18 -1 16 -1 16 -11 0 -15
-26 -29 -22 -30 10 0 16 -3 21 -6 12 -4 -8 -15 -23 -26 -32 -22 -20 -26 -19
133 -24 25 0 45 -5 45 -9 0 -9 -120 -8 -172 2 l-33 5 0 72 0 71 87 -4 c112 -4
105 4 -9 13 l-88 6 0 -84z"/>
<path d="M9307 6913 c1 -69 3 -133 4 -142 1 -9 1 -25 0 -36 -1 -17 -3 -18 -11
-5 -6 9 -10 10 -10 3 0 -6 5 -15 10 -18 6 -4 8 -15 5 -25 -3 -10 -1 -21 4 -25
14 -8 12 -156 -2 -173 -7 -9 -7 -16 -1 -20 15 -11 11 -52 -6 -62 -12 -8 -12
-10 -1 -10 7 0 11 -6 8 -13 -2 -6 -2 -45 2 -84 l7 -72 -36 -4 c-33 -3 -33 -4
8 -5 l42 -2 0 410 c0 321 -3 410 -12 410 -10 0 -12 -31 -11 -127z"/>
<path d="M8412 6793 l-2 -93 38 0 c22 0 73 -3 115 -6 59 -5 77 -11 77 -22 0
-11 9 -13 40 -9 23 3 134 -1 248 -9 114 -7 228 -14 253 -14 l46 0 6 52 c4 29
3 56 -1 60 -4 4 -21 4 -37 -1 -19 -4 -47 -3 -75 5 -25 7 -124 18 -220 23 -248
16 -230 17 -230 -23 l0 -33 88 -6 c48 -4 166 -9 264 -13 156 -6 213 -14 198
-27 -3 -2 -57 0 -120 4 -63 4 -190 11 -282 15 l-168 7 0 65 c0 36 -3 62 -7 59
-3 -4 -5 -35 -4 -69 l3 -61 -39 6 c-21 4 -70 7 -110 7 l-72 0 -4 88 -3 87 -2
-92z"/>
<path d="M8412 6584 l-2 -92 88 -5 c48 -3 177 -12 287 -21 110 -8 255 -16 322
-18 l122 -3 6 33 c7 37 22 42 28 10 2 -13 4 2 4 32 0 30 -2 45 -4 33 -2 -13
-9 -23 -15 -23 -5 0 -8 7 -4 15 4 10 -1 15 -14 15 -13 0 -20 -7 -20 -20 0 -11
-7 -20 -16 -20 -8 0 -13 4 -10 8 14 23 -20 32 -173 46 -89 7 -172 12 -184 9
-18 -4 -19 -3 -7 6 11 8 -6 11 -67 11 l-83 0 0 -38 0 -38 178 -12 c97 -7 219
-13 270 -13 51 -1 95 -6 99 -12 6 -10 -71 -8 -434 10 l-133 6 0 59 c0 32 -4
58 -10 58 -6 0 -10 -29 -10 -66 0 -64 -1 -66 -22 -60 -13 3 -60 6 -105 6 l-82
0 -4 88 -3 87 -2 -91z"/>
<path d="M8410 6389 l0 -86 108 -12 c59 -6 168 -16 242 -21 74 -6 171 -15 215
-20 44 -6 121 -10 172 -10 l93 0 0 54 0 54 -47 5 c-60 7 -274 25 -410 35
l-103 8 0 -37 0 -36 113 -8 c61 -4 182 -10 267 -14 126 -5 155 -9 158 -21 3
-18 -53 -17 -213 2 -55 6 -125 12 -155 12 -30 1 -87 3 -127 4 l-72 2 -4 73 -3
72 -2 -74 -2 -74 -102 7 c-56 3 -104 8 -106 11 -3 2 -6 31 -8 65 l-4 60 43 2
42 1 -40 4 c-22 3 -43 10 -47 16 -4 7 -8 -27 -8 -74z"/>
<path d="M8281 5282 c-6 -2 -11 -12 -11 -21 0 -15 11 -19 63 -24 231 -20 625
-58 640 -61 13 -3 17 2 17 25 0 29 -1 29 -57 30 -32 0 -189 12 -350 27 -161
15 -297 26 -302 24z"/>
<path d="M9286 5170 c-4 -30 -4 -70 0 -88 6 -29 4 -32 -17 -33 -34 -2 72 -17
161 -22 41 -2 55 -3 30 0 -50 5 -80 23 -39 23 32 0 42 9 29 26 -6 6 -13 36
-17 65 -6 53 -17 79 -34 79 -5 0 -9 -7 -9 -15 0 -19 -14 -19 -29 -1 -6 8 -25
16 -40 18 -28 4 -29 3 -35 -52z"/>
<path d="M8270 5182 c0 -24 35 -30 425 -67 143 -14 269 -27 280 -28 14 -1 21
5 23 20 4 25 30 21 -373 58 -148 14 -289 28 -312 31 -38 6 -43 4 -43 -14z"/>
<path d="M7674 5172 c-14 -2 -24 -12 -27 -29 -5 -28 -2 -121 4 -127 2 -2 21
-6 42 -9 l37 -6 0 40 c0 21 5 39 10 39 6 0 10 -4 10 -10 0 -5 5 -9 12 -7 7 1
12 -2 13 -8 0 -5 4 -16 8 -22 5 -7 6 -17 3 -22 -6 -8 41 -22 73 -20 11 0 9 3
-6 9 -15 6 -24 21 -29 46 -9 47 5 85 36 101 24 12 22 13 -22 13 -42 0 -47 -3
-56 -29 -13 -38 -46 -36 -50 2 -4 30 -26 45 -58 39z"/>
<path d="M7710 4781 l0 -98 88 -11 c48 -6 114 -14 147 -17 33 -3 130 -15 215
-26 318 -40 799 -88 907 -91 108 -3 112 -2 122 20 8 17 7 22 -4 22 -8 0 -15 4
-15 8 0 4 -8 8 -17 9 -45 3 -75 11 -85 21 -9 9 -9 12 0 12 7 0 12 -4 12 -8 0
-4 8 -8 18 -9 30 -1 76 -10 95 -18 9 -4 17 -3 17 3 0 14 -26 33 -33 25 -4 -3
-7 -1 -7 5 0 7 10 10 23 8 15 -2 23 -11 25 -28 3 -23 7 -25 56 -27 40 -1 55 2
60 14 6 18 5 18 -28 5 -29 -11 -76 2 -76 21 0 8 4 8 15 -1 8 -7 15 -9 15 -5 0
4 6 2 14 -4 10 -9 15 -8 19 4 4 9 13 12 23 8 12 -4 15 -3 10 6 -5 7 -20 9 -41
5 -19 -3 -35 -1 -39 5 -4 5 -13 8 -20 5 -8 -3 -17 0 -21 5 -3 6 -11 9 -16 6
-12 -8 -11 6 1 25 9 13 10 13 10 0 0 -9 10 -16 25 -18 19 -1 26 4 31 23 7 27
24 31 55 15 12 -7 19 -7 19 -1 0 13 -70 26 -79 14 -9 -13 -51 -14 -51 -1 0 6
-6 6 -15 -2 -10 -9 -15 -9 -15 -1 0 21 -20 11 -26 -14 -3 -14 -10 -25 -15 -25
-5 0 -7 11 -3 25 6 25 -10 36 -19 13 -4 -10 -6 -10 -6 0 -1 17 -21 15 -21 -3
0 -8 -4 -15 -10 -15 -5 0 -7 7 -4 15 4 9 0 15 -10 16 -27 2 -56 6 -58 8 -2 2
-15 4 -30 6 -32 4 -36 -6 -40 -95 -3 -54 -4 -55 -35 -58 -30 -3 -31 -2 -31 35
1 21 1 59 0 85 -2 41 -4 46 -22 41 -16 -4 -19 -2 -14 11 4 9 3 16 -2 15 -5 -1
-11 0 -14 1 -9 3 -44 7 -130 13 -80 5 -81 4 -2 -9 23 -4 33 -10 31 -22 -3 -30
1 -37 11 -22 8 13 10 13 10 -1 0 -11 -9 -16 -25 -16 -28 0 -29 1 -15 28 8 15
7 19 -5 19 -8 0 -15 -4 -15 -8 0 -4 -51 0 -112 10 -62 10 -176 27 -253 37
-110 16 -123 19 -60 15 44 -2 94 -6 110 -9 17 -2 8 2 -20 9 -27 8 -77 15 -110
15 -33 1 -91 6 -130 12 -123 18 -309 39 -347 39 l-38 0 0 -99z"/>
<path d="M7710 4242 l0 -99 73 -12 c39 -6 149 -20 242 -31 297 -33 606 -70
740 -87 72 -9 171 -17 220 -18 50 -1 147 -6 218 -10 94 -6 127 -5 127 3 0 7
-9 12 -20 12 -11 0 -20 7 -20 15 0 8 8 15 18 15 11 0 18 8 19 22 2 18 0 19 -7
8 -7 -12 -12 -12 -22 -2 -6 6 -20 12 -30 12 -10 0 -18 4 -18 9 0 4 11 6 24 4
15 -3 25 1 29 10 4 12 -1 16 -21 16 -59 2 -62 3 -56 26 5 19 1 23 -26 27 -17
3 -55 4 -85 3 -30 -1 -55 1 -55 5 0 6 -32 11 -85 14 l-30 1 -3 -70 c-3 -75
-15 -95 -59 -95 -22 0 -23 3 -23 78 0 42 -4 83 -8 89 -4 7 -26 17 -47 23 -45
11 -54 12 160 -10 55 -6 141 -12 190 -15 90 -5 -182 26 -750 84 -165 17 -358
37 -430 45 -71 8 -160 17 -197 21 l-68 7 0 -100z"/>
<path d="M7710 3691 c0 -65 9 -74 80 -79 43 -3 58 -7 49 -14 -10 -7 -7 -8 11
-4 14 3 39 1 55 -4 17 -5 75 -14 131 -20 55 -7 107 -16 115 -21 20 -13 0 -12
-101 5 -47 8 -132 20 -190 26 -58 7 -121 14 -140 17 -24 3 -30 1 -20 -5 8 -5
65 -17 125 -26 61 -9 170 -25 243 -36 74 -11 136 -20 138 -20 2 0 4 34 4 75 0
88 0 88 -117 105 -95 13 -122 11 -53 -5 30 -7 44 -13 30 -13 -25 -1 -64 6
-147 27 -23 6 -80 17 -127 25 l-86 13 0 -46z"/>
<path d="M8230 3604 l0 -64 38 -1 c20 0 55 -4 77 -9 30 -6 20 -7 -37 -3 -54 3
-78 2 -78 -6 0 -7 25 -11 69 -11 39 0 73 -4 76 -10 3 -5 21 -11 38 -11 l32 -2
-35 -7 -35 -7 40 -2 40 -1 -3 84 -3 84 -87 11 c-48 7 -97 13 -109 15 -22 3
-23 0 -23 -60z"/>
<path d="M8470 3570 l0 -57 60 -7 c33 -4 60 -11 60 -16 0 -5 7 -6 17 -3 11 4
14 3 9 -5 -5 -9 5 -10 38 -6 31 5 46 3 46 -5 0 -7 -36 -11 -112 -12 l-113 -2
90 -10 c50 -5 106 -10 125 -11 l35 -1 -3 80 c-2 44 -5 81 -6 83 -2 1 -32 5
-67 7 -35 2 -90 8 -121 13 l-58 9 0 -57z"/>
<path d="M8740 3531 l0 -56 118 -25 c64 -13 138 -24 165 -24 26 -1 47 -4 47
-8 0 -5 17 -8 38 -9 36 0 127 -16 107 -18 -27 -3 -253 22 -354 39 -63 11 -117
18 -119 15 -13 -13 20 -24 115 -38 174 -25 225 -31 283 -28 30 1 85 -5 123
-12 l67 -15 0 80 c0 45 -4 77 -9 74 -5 -4 -11 -2 -13 3 -1 5 -37 11 -78 14
-86 7 -175 18 -310 40 -52 9 -114 18 -137 20 l-43 5 0 -57z"/>
<path d="M7770 3534 c36 -7 77 -13 92 -14 25 0 46 -15 36 -26 -3 -2 -31 1 -64
6 -32 6 -74 13 -91 16 l-33 5 0 -45 c0 -41 2 -45 33 -55 17 -7 57 -14 89 -18
49 -5 57 -3 62 13 3 11 4 4 2 -13 -2 -31 -1 -33 30 -33 18 0 61 -6 96 -14 35
-8 91 -18 126 -22 l62 -7 0 66 0 65 -67 7 c-114 12 -214 32 -226 45 -9 9 -6
11 18 6 17 -3 62 -7 100 -10 66 -5 67 -4 20 4 -27 6 -75 12 -105 15 -30 2 -89
9 -130 14 -103 14 -129 11 -50 -5z"/>
<path d="M8232 3395 l3 -60 45 -7 c26 -5 48 -4 54 2 14 14 26 12 26 -3 0 -18
63 -54 68 -39 2 7 11 12 19 12 12 0 14 7 9 31 -3 17 -6 48 -6 69 l0 37 -110 9
-111 9 3 -60z"/>
<path d="M8480 3349 c0 -60 -2 -70 -16 -65 -8 3 -12 2 -9 -4 3 -6 36 -10 73
-11 47 0 61 -3 47 -9 -14 -6 -3 -9 40 -9 33 -1 70 -4 83 -7 21 -6 22 -4 22 70
0 54 -4 76 -12 76 -7 0 -58 7 -113 15 -55 8 -103 15 -107 15 -5 0 -8 -32 -8
-71z"/>
<path d="M7043 8033 c-22 -4 -23 -8 -23 -110 l0 -105 -127 6 c-71 4 -155 9
-188 11 -33 2 -118 7 -190 10 -205 8 -723 34 -915 45 -451 25 -587 32 -1030
55 -317 16 -488 21 -515 15 -37 -9 -35 -9 15 -4 39 3 51 2 40 -6 -13 -8 -12
-10 5 -11 88 -3 198 -18 203 -26 7 -10 18 -10 60 3 17 5 22 2 22 -11 0 -16 7
-17 60 -12 62 7 180 -1 178 -12 -3 -25 3 -31 22 -21 23 12 371 -27 383 -44 5
-7 13 -4 23 9 15 20 15 19 20 -2 7 -26 38 -34 142 -38 41 -2 78 -8 81 -14 4
-7 41 -12 89 -13 64 -1 82 -5 82 -16 0 -11 8 -13 28 -9 38 8 61 -7 36 -22 -15
-8 -2 -10 59 -11 44 0 77 -4 77 -10 0 -5 -5 -10 -12 -10 -6 0 -9 -3 -6 -6 3
-3 24 4 47 15 45 24 51 25 51 12 0 -5 -8 -12 -17 -14 -17 -4 -17 -5 0 -6 10 0
15 -5 12 -11 -3 -5 1 -10 9 -10 9 0 16 4 16 9 0 12 69 19 73 8 1 -5 18 -10 37
-12 19 -1 61 -9 92 -18 32 -8 69 -12 83 -9 14 2 32 -1 40 -8 9 -7 25 -10 41
-6 21 6 25 4 21 -8 -4 -10 -1 -13 9 -9 8 3 21 0 28 -6 9 -8 15 -8 18 -2 2 7
18 7 48 0 30 -7 46 -7 48 0 2 7 12 7 29 0 15 -5 32 -8 39 -5 7 3 15 0 18 -7 5
-9 7 -9 12 0 4 10 10 10 25 0 16 -10 21 -9 29 3 6 10 10 11 10 3 0 -8 13 -13
30 -13 16 0 49 -4 72 -10 78 -17 182 -33 226 -33 23 0 42 -3 42 -7 0 -8 12
-10 118 -12 39 -1 72 -5 72 -10 0 -4 13 -8 29 -8 16 0 32 -6 34 -12 3 -7 6
114 6 270 l1 282 -22 -1 c-13 -1 -33 -4 -45 -6z"/>
<path d="M3630 6813 c-36 -32 -34 -16 -75 -522 -23 -281 -24 -285 -57 -289
-25 -3 -28 -7 -28 -43 0 -28 -4 -39 -15 -39 -9 0 -15 -9 -15 -24 0 -13 -7 -27
-16 -30 -10 -4 -14 -12 -10 -23 4 -9 -1 -24 -11 -35 -17 -18 -18 -19 -24 -1
-6 17 -7 17 -15 -2 -4 -11 -12 -24 -18 -28 -8 -6 -7 -10 2 -14 21 -8 13 -19
-28 -38 -22 -10 -40 -24 -40 -32 0 -7 -6 -13 -13 -13 -14 0 -52 -69 -42 -78 3
-3 -1 -12 -9 -21 -21 -24 -30 -91 -13 -91 16 0 38 -95 40 -167 1 -24 6 -43 11
-43 6 0 -5 -11 -22 -24 -25 -18 -29 -26 -20 -34 7 -6 19 -31 27 -56 7 -25 17
-46 22 -46 11 0 59 -83 59 -102 0 -15 19 -28 41 -28 5 0 9 9 9 21 0 11 5 17
10 14 13 -8 13 -125 0 -145 -7 -11 -10 -1 -10 34 0 27 -2 47 -4 45 -3 -2 -7
-115 -10 -249 -5 -249 -11 -314 -28 -304 -8 5 -4 85 7 154 9 53 -13 -14 -26
-78 -7 -35 -19 -71 -28 -80 -15 -14 -16 -14 -19 11 -2 14 11 84 29 154 24 99
32 157 36 255 3 75 0 135 -6 145 -8 16 -10 15 -15 -7 -2 -14 -7 -57 -10 -97
-9 -115 -25 -134 -25 -30 -1 51 -5 87 -11 87 -5 0 -10 -21 -10 -46 0 -40 -2
-45 -19 -39 -25 8 -31 -18 -30 -140 1 -65 4 -91 9 -75 5 15 8 -23 8 -100 0
-142 -12 -114 -23 55 -3 55 -10 120 -15 145 -5 25 -11 61 -14 80 -5 27 -11 36
-27 37 -19 2 -20 -2 -15 -90 5 -108 32 -302 47 -335 7 -18 6 -23 -3 -20 -22 8
-49 99 -54 178 -4 77 -28 227 -37 236 -3 3 -8 -17 -12 -43 -9 -69 26 -343 48
-370 5 -7 30 -13 56 -14 25 -1 57 -5 71 -9 21 -7 17 -8 -21 -9 -25 -1 -67 2
-92 5 -37 5 -47 11 -56 33 -20 52 -41 155 -52 250 -6 53 -15 99 -21 102 -5 3
-8 19 -6 35 2 23 -1 29 -22 34 -23 6 -25 10 -25 68 0 50 -3 62 -15 62 -9 0
-24 6 -34 13 -15 11 -16 19 -7 51 l10 38 -62 -6 c-153 -16 -336 -25 -506 -26
-170 0 -183 1 -176 17 3 10 11 67 16 128 6 60 17 132 25 159 8 26 14 66 14 88
0 33 -3 38 -17 34 -28 -8 -132 -24 -198 -31 -120 -12 -125 -14 -123 -49 1 -60
-2 -75 -19 -79 -16 -4 -16 -5 1 -6 17 -1 18 -7 13 -78 -3 -43 -13 -96 -22
-118 -20 -47 -62 -95 -84 -95 -14 0 -14 -2 0 -15 26 -26 211 -38 514 -31 154
3 300 8 325 10 25 3 62 -1 83 -8 l39 -13 -34 -6 c-70 -13 -491 -126 -498 -134
-12 -13 0 -74 14 -66 6 4 5 -1 -3 -10 -7 -9 -11 -26 -8 -38 14 -54 -18 -60
-177 -34 -151 24 -738 107 -786 111 -66 5 69 -23 195 -40 55 -8 188 -28 295
-44 107 -17 248 -38 312 -47 167 -22 168 -23 168 -87 0 -88 14 -86 -267 -45
-267 39 -394 53 -333 37 40 -10 188 -33 363 -56 65 -8 150 -21 190 -28 l72
-12 0 -77 0 -77 27 0 c21 0 29 -6 34 -25 3 -14 4 -32 1 -40 -4 -8 -2 -17 2
-20 10 -5 21 28 21 63 0 23 9 26 48 16 19 -5 20 -9 10 -22 -11 -13 -9 -14 12
-9 20 6 19 4 -5 -8 -25 -12 -26 -14 -9 -15 11 0 23 -3 27 -6 8 -9 -15 -31 -39
-37 -10 -2 11 -5 48 -6 46 -1 71 -6 82 -17 15 -14 16 -14 16 0 0 9 5 16 10 16
6 0 10 9 10 20 0 24 -1 24 36 6 35 -17 203 -29 272 -20 38 5 49 10 48 22 -2 9
6 25 16 36 10 11 32 49 48 83 17 35 35 63 41 63 19 0 1 -50 -48 -134 -45 -79
-45 -79 -24 -95 15 -12 22 -32 27 -83 4 -41 3 -68 -3 -68 -5 0 -6 -27 -1 -67
4 -38 7 -98 6 -136 l-1 -67 -51 -15 c-28 -8 -82 -19 -121 -24 -51 -7 1 -8 200
-7 149 2 281 5 295 8 14 3 68 11 120 17 94 11 240 55 240 72 0 5 -5 9 -11 9
-6 0 -9 8 -7 17 5 27 112 43 202 31 39 -5 98 -13 131 -17 33 -5 62 -4 63 0 2
5 13 9 24 9 39 0 105 112 92 154 -4 11 -7 38 -7 58 0 34 -2 38 -31 43 -195 32
-279 43 -292 38 -13 -5 -13 -7 -2 -14 10 -7 9 -9 -5 -9 -9 0 -16 -4 -15 -9 2
-5 -1 -9 -5 -10 -4 0 -15 -7 -23 -16 -30 -30 -50 -18 -65 38 l-14 52 -89 12
c-132 17 -131 15 -129 214 1 88 4 163 7 167 6 5 214 -23 646 -88 107 -16 377
-56 600 -90 223 -33 495 -74 605 -90 110 -17 378 -55 595 -86 217 -30 501 -70
630 -89 129 -19 241 -35 248 -35 9 0 12 -13 11 -42 -1 -24 -2 -56 -1 -71 l2
-28 38 28 c35 26 36 26 16 3 -32 -37 -38 -51 -20 -44 9 3 14 10 11 14 -3 4 2
11 10 14 13 5 14 2 4 -17 -6 -12 -18 -30 -27 -39 -11 -13 -12 -18 -2 -18 10 0
10 -3 1 -14 -9 -11 -9 -16 0 -22 7 -4 9 -3 6 3 -16 25 24 19 62 -9 46 -33 45
-30 31 -80 -11 -38 -88 -116 -139 -141 l-26 -12 -5 -204 -5 -204 165 6 c152 6
173 5 260 -17 61 -15 99 -20 107 -14 6 5 35 7 65 4 l53 -5 -55 10 c-149 27
-164 32 -191 60 -22 24 -36 29 -95 34 -102 8 -104 10 -104 58 0 23 3 59 6 80
7 37 8 38 38 31 56 -13 80 -13 88 -1 6 9 8 9 8 -1 0 -7 7 -20 15 -28 13 -14
15 81 15 850 l0 866 -30 -2 c-16 -1 -30 -7 -30 -12 0 -6 -5 -5 -12 2 -7 7 -32
12 -57 12 l-44 0 6 123 c4 67 15 232 26 367 67 817 69 858 48 899 -6 13 -24
33 -38 43 -29 22 -64 26 -719 78 -212 17 -466 37 -565 46 -99 8 -346 28 -550
44 -203 17 -449 37 -545 45 -96 8 -328 26 -515 40 -187 14 -359 28 -381 31
-36 5 -46 2 -74 -23z m1794 -1128 c-6 -77 -5 -85 10 -79 9 3 16 11 16 18 0 6
4 5 9 -4 6 -8 7 -18 5 -22 -3 -4 0 -8 5 -8 6 0 11 -6 11 -14 0 -9 7 -12 20 -9
11 3 20 9 20 14 0 5 -7 6 -15 3 -10 -4 -15 0 -15 10 0 15 11 17 85 14 51 -2
85 -7 85 -13 0 -7 19 -10 48 -9 26 1 65 -2 87 -6 31 -6 19 -8 -57 -9 -54 0
-98 3 -98 7 0 5 -22 8 -50 8 -103 0 -30 -20 113 -30 4 -1 7 -4 7 -8 0 -5 0
-12 0 -18 0 -5 -26 -10 -57 -11 l-58 -1 45 -10 c35 -8 41 -12 26 -18 -18 -6
-18 -7 -2 -13 27 -11 86 -8 86 3 0 6 -15 10 -32 11 l-33 1 27 8 c16 5 63 3
115 -6 85 -13 85 -13 19 -8 -59 4 -68 3 -63 -11 5 -11 0 -15 -16 -16 -19 0
-18 -2 7 -11 21 -8 25 -13 15 -19 -11 -7 -9 -9 7 -9 11 0 29 -7 40 -15 18 -15
18 -15 0 -8 -13 4 -17 3 -12 -5 4 -7 15 -12 25 -12 19 0 31 26 31 68 0 13 3
21 8 19 4 -3 7 -23 6 -46 0 -23 5 -42 12 -45 18 -7 24 3 24 38 0 19 3 26 8 18
5 -7 28 -19 53 -27 l44 -14 -45 4 -45 4 48 -11 c32 -8 46 -16 45 -26 -3 -15
77 -50 88 -39 3 2 9 33 14 68 7 49 7 35 3 -61 -6 -131 -19 -275 -22 -228 -1
21 -7 29 -28 34 -16 3 -37 8 -48 11 -36 11 -65 11 -65 2 0 -5 7 -9 16 -9 9 0
14 -6 11 -12 -2 -7 -11 -12 -21 -10 -9 2 -16 -2 -16 -8 0 -5 6 -10 13 -10 18
0 36 -20 31 -34 -3 -8 -18 -11 -37 -9 -25 4 -29 2 -17 -6 13 -10 13 -12 0 -21
-21 -14 -30 -12 -30 4 0 8 -8 15 -17 15 -52 -1 -100 6 -123 18 -28 14 -70 18
-54 5 13 -12 87 -32 117 -32 14 0 29 -5 32 -11 5 -7 -4 -8 -27 -5 -18 3 -60
10 -93 16 -33 5 -77 12 -99 16 -31 6 -38 4 -34 -7 3 -9 36 -19 93 -28 66 -11
84 -16 70 -23 -12 -5 -2 -6 25 -1 73 11 191 12 184 1 -4 -6 -32 -7 -72 -3 -62
7 -65 6 -52 -10 13 -16 12 -17 -15 -12 -17 3 -57 9 -89 12 -40 5 -55 10 -45
16 10 6 8 9 -11 10 -103 6 -138 9 -160 13 -14 2 -44 5 -67 5 -30 1 -41 5 -38
14 6 14 115 19 115 5 0 -4 11 -8 25 -8 16 0 25 6 25 15 0 8 -7 15 -15 15 -8 0
-15 -6 -15 -12 0 -10 -2 -10 -9 0 -4 8 -21 13 -37 12 -71 -5 -94 0 -94 19 0
16 -5 17 -32 12 -28 -6 -34 -13 -40 -41 -4 -19 -5 25 -2 99 2 74 2 133 0 130
-3 -2 -10 -54 -16 -114 -15 -149 -17 -160 -35 -145 -19 16 -75 3 -82 -18 -4
-10 -14 -24 -23 -33 -13 -13 -19 -14 -33 -4 -16 12 -16 13 3 18 24 6 27 27 3
27 -13 0 -14 3 -5 12 7 7 12 15 12 19 0 12 -43 18 -62 8 -12 -7 -18 -6 -18 1
0 6 -7 18 -15 27 -14 14 -18 13 -35 -7 -26 -30 -120 -54 -162 -40 -29 8 -29 9
-5 6 21 -2 27 1 27 15 0 12 7 19 18 19 10 0 29 12 43 26 13 14 44 37 69 50
l45 25 -35 -6 c-34 -5 -34 -5 -14 13 11 11 26 21 34 24 8 3 -5 5 -30 5 -25 1
-58 -7 -75 -16 -38 -21 -85 -72 -77 -85 3 -6 7 -5 10 2 7 22 19 12 15 -12 -3
-13 -16 -29 -30 -35 -24 -11 -25 -10 -19 14 6 23 5 25 -13 16 -11 -6 -29 -23
-40 -37 -11 -14 -25 -23 -31 -19 -7 4 -3 14 11 26 12 11 19 22 15 26 -3 4 -12
1 -18 -5 -7 -7 -22 -12 -35 -12 -17 0 -23 -6 -24 -22 l0 -23 -11 22 c-7 14
-23 24 -42 27 -17 3 -56 9 -86 14 -52 9 -49 10 41 8 54 0 95 -5 92 -9 -7 -12
55 21 92 47 17 12 46 28 65 36 49 19 59 30 24 28 -16 -1 -42 1 -59 5 -21 5
-25 5 -15 -2 12 -8 9 -12 -13 -20 -16 -6 -33 -11 -38 -11 -5 0 -9 -4 -9 -9 0
-14 -31 -22 -44 -12 -7 6 -27 6 -51 1 -24 -5 -42 -5 -45 0 -3 5 -42 12 -85 15
-104 7 -176 14 -197 21 -10 3 -18 1 -18 -5 0 -6 -19 -11 -42 -12 -46 0 -48 2
27 -30 11 -4 31 -10 45 -12 14 -2 -3 -5 -37 -6 -66 -1 -86 -17 -30 -23 20 -2
9 -5 -32 -8 -34 -3 -68 -2 -75 2 -6 4 6 8 27 8 20 0 37 4 37 9 0 5 -19 7 -42
5 -39 -4 -41 -3 -18 7 l25 12 -35 7 c-19 4 -27 8 -16 9 16 1 16 3 -7 21 -26
21 -42 26 -33 11 3 -5 -5 -12 -18 -15 -14 -3 -27 -14 -30 -24 -3 -9 -3 8 0 38
8 98 16 140 26 140 5 0 8 -10 6 -22 -2 -11 3 -23 10 -25 6 -3 12 1 12 9 0 19
87 56 150 64 73 8 94 19 60 32 -54 20 -52 22 18 16 56 -5 91 -1 150 14 42 11
105 25 139 32 34 6 74 17 90 25 15 8 37 15 48 15 11 0 32 6 46 14 15 7 50 21
78 31 28 9 53 21 57 26 11 18 148 76 211 89 36 7 83 10 112 6 47 -6 51 -5 65
21 15 27 15 26 17 -42 l1 -70 9 60 c5 33 12 79 15 103 9 73 14 46 8 -43z m921
-445 c114 -45 380 -177 414 -205 31 -27 42 -67 21 -80 -5 -3 -10 -1 -10 5 0 7
-8 9 -20 5 -11 -4 -20 -2 -20 4 0 6 -15 11 -34 11 -19 0 -38 5 -41 11 -4 6
-13 8 -21 5 -7 -3 -28 2 -46 11 -59 29 -68 33 -78 33 -21 0 -9 -20 15 -26 22
-5 36 -24 18 -24 -15 0 -101 45 -134 72 -35 27 -71 41 -39 15 8 -7 21 -20 29
-30 13 -16 12 -17 -13 -7 -15 5 -62 28 -105 50 -86 45 -93 46 -85 25 4 -9 0
-16 -7 -16 -8 -1 0 -5 16 -9 30 -8 30 -8 -7 -9 -22 0 -38 -6 -38 -13 0 -6 3
-9 6 -5 3 3 25 -3 49 -13 24 -10 67 -19 94 -18 28 0 63 -7 78 -15 136 -70 146
-77 116 -77 -16 0 -52 6 -79 14 -27 8 -75 20 -106 26 -32 6 -58 16 -58 21 0 5
-3 8 -7 7 -14 -4 -53 13 -53 23 0 5 -10 8 -22 6 -23 -2 -23 0 -23 118 0 160 0
161 67 134 29 -12 85 -34 123 -49z m-2756 -1416 c10 -9 -13 -12 -154 -21 -86
-6 -151 -6 -153 -1 -2 5 -10 4 -17 -2 -7 -6 -30 -12 -50 -13 -20 -2 -39 -7
-43 -12 -4 -6 -35 -10 -69 -10 l-63 0 0 32 0 32 211 0 c116 0 213 2 215 4 5 4
117 -4 123 -9z"/>
<path d="M4344 5253 c3 -4 32 -13 64 -20 l57 -13 -75 4 -75 5 50 -15 c52 -15
239 -26 288 -17 37 7 36 38 -2 51 -20 7 -32 7 -40 -1 -8 -8 -11 -8 -11 1 0 15
-36 16 -45 1 -4 -6 -22 -8 -44 -5 -65 10 -174 16 -167 9z"/>
<path d="M2710 6345 c-9 -17 -19 -23 -31 -20 -12 4 -20 -1 -24 -15 -5 -15 -10
-18 -23 -11 -9 5 -17 17 -17 27 0 9 -6 19 -12 21 -7 3 -13 -2 -13 -11 0 -9 -4
-16 -10 -16 -5 0 -10 -7 -10 -15 0 -8 -7 -15 -15 -15 -18 0 -20 -17 -2 -23 6
-2 9 -7 6 -11 -8 -8 -59 17 -59 30 0 5 4 14 10 20 5 5 6 15 0 24 -7 12 -10 11
-16 -5 -4 -11 -15 -26 -23 -32 -14 -11 -14 -14 -1 -22 18 -12 7 -26 -14 -18
-12 5 -13 13 -6 36 5 17 5 31 0 31 -19 0 -53 -38 -55 -64 -2 -16 -8 -32 -13
-35 -4 -3 -11 -14 -15 -23 -3 -10 -15 -18 -26 -18 -11 0 -24 -7 -29 -16 -8
-14 -12 -14 -30 -3 -14 9 -25 10 -31 4 -12 -14 -25 -59 -15 -52 5 3 15 -1 22
-9 8 -9 9 -14 2 -14 -7 0 -5 -6 4 -15 8 -8 22 -15 30 -15 18 0 21 -16 5 -25
-6 -4 -19 2 -30 14 -20 21 -40 27 -52 14 -11 -10 13 -32 29 -26 8 3 21 0 29
-7 8 -7 24 -10 34 -7 15 3 18 1 14 -11 -5 -11 -2 -14 11 -9 11 4 15 3 11 -4
-4 -6 -13 -8 -21 -5 -8 3 -14 2 -14 -3 0 -5 -11 -8 -24 -8 -17 0 -23 4 -19 13
8 21 -24 17 -48 -7 -18 -18 -19 -23 -7 -50 10 -23 19 -29 45 -29 18 0 33 5 33
10 0 6 -7 10 -15 10 -21 0 -19 13 5 27 13 9 27 10 45 3 21 -8 24 -14 19 -36
-5 -19 -1 -29 16 -41 15 -11 20 -22 16 -38 -4 -16 -1 -25 10 -29 29 -11 36 -6
30 19 -5 18 -2 25 9 25 8 0 15 -4 15 -10 0 -5 8 -10 19 -10 14 0 17 -6 14 -27
-4 -27 -4 -27 19 7 12 19 33 46 45 60 13 14 23 29 23 35 0 5 5 3 10 -5 9 -13
10 -13 10 1 0 12 11 15 50 15 38 -1 50 -5 50 -16 0 -10 -10 -15 -30 -15 -16 0
-28 -4 -27 -10 1 -6 23 -8 49 -7 42 3 47 1 50 -19 4 -30 24 -35 31 -8 5 18 11
21 36 16 31 -7 53 16 25 27 -8 3 -14 19 -14 36 0 25 4 31 18 28 12 -3 16 -12
15 -31 -1 -15 2 -27 7 -27 11 0 20 26 20 61 0 17 4 28 8 25 4 -2 14 -1 22 5
12 7 12 9 -4 9 -15 0 -17 6 -14 30 4 30 -5 40 -17 20 -5 -8 -11 -7 -21 1 -22
18 -17 29 14 30 16 1 20 3 10 6 -10 2 -18 13 -18 23 0 10 -10 26 -22 34 -21
15 -23 15 -36 -9 -7 -14 -17 -25 -22 -25 -6 0 -10 -11 -10 -25 0 -30 -24 -43
-46 -24 -11 9 -14 22 -10 41 5 23 2 28 -14 28 -27 0 -25 18 6 46 29 28 34 29
34 9 0 -8 7 -15 15 -15 8 0 15 -4 15 -10 0 -12 63 15 68 29 2 6 -3 14 -12 17
-9 3 -16 14 -16 23 0 9 -4 23 -10 31 -7 12 -12 11 -30 -5 -26 -23 -38 -12 -42
38 -2 31 3 43 22 58 18 13 21 19 9 19 -9 0 -22 -11 -29 -25z"/>
<path d="M1080 4210 c228 -11 1065 -20 996 -11 -33 5 -163 9 -290 9 -127 1
-373 3 -546 6 -226 3 -271 2 -160 -4z"/>
<path d="M2430 4059 c-25 -4 -351 -5 -726 -2 -510 5 -683 3 -688 -5 -5 -9 98
-12 417 -12 233 0 573 -3 755 -7 l332 -6 0 21 c0 24 -11 26 -90 11z"/>
<path d="M6301 4023 c-8 -19 -10 -44 -6 -60 11 -44 18 -162 11 -189 -4 -14
-11 -22 -16 -19 -6 3 -10 -4 -10 -15 0 -19 4 -21 25 -16 26 7 27 6 29 -36 2
-41 16 -46 16 -6 0 32 2 36 22 30 19 -5 20 -7 6 -15 -14 -9 -14 -15 -1 -54 12
-36 18 -42 29 -32 11 9 14 8 14 -2 0 -11 2 -11 10 1 5 8 10 10 10 4 0 -19 36
-22 69 -6 29 14 31 18 29 58 -2 24 -4 44 -5 44 -19 0 -53 -24 -54 -37 0 -17
-1 -17 -7 -1 -6 15 -10 13 -27 -12 -11 -17 -25 -30 -31 -30 -19 0 -36 28 -30
47 6 18 73 89 111 119 11 9 15 13 8 10 -6 -4 -14 -2 -18 4 -3 5 0 10 7 10 8 0
9 3 2 8 -5 4 -16 23 -24 42 -14 37 -69 91 -83 83 -5 -3 -8 -37 -7 -76 3 -129
2 -130 -36 -103 -17 13 -20 31 -24 148 -5 124 -6 131 -19 101z"/>
<path d="M640 3932 c0 -76 3 -91 18 -97 21 -8 739 -22 1377 -27 l480 -3 3 95
3 95 -153 -4 c-84 -2 -145 -6 -135 -8 15 -4 17 -14 15 -76 -3 -63 -5 -72 -21
-70 -10 0 -362 4 -783 8 -556 6 -768 11 -780 19 -13 10 -15 23 -9 68 4 30 10
60 14 66 5 9 58 9 201 2 107 -5 454 -11 770 -12 316 -2 528 0 470 3 -58 4
-296 10 -530 13 -234 3 -541 9 -682 12 l-258 6 0 -90z"/>
<path d="M4501 4004 c12 -4 17 -17 17 -45 1 -33 -2 -39 -21 -40 -32 -1 30 -27
113 -47 36 -8 67 -18 70 -22 3 -3 65 -16 139 -28 74 -11 137 -25 140 -29 3 -5
31 -9 61 -9 82 0 180 -15 174 -26 -4 -6 4 -5 16 2 12 6 32 9 45 6 18 -5 25 -1
30 14 5 14 13 19 28 15 120 -27 164 -35 242 -44 50 -6 151 -19 225 -28 74 -9
161 -18 194 -19 32 -2 61 -5 64 -8 6 -7 5 -77 -3 -84 -8 -8 -50 -4 -245 23
-340 47 -511 75 -527 87 -7 6 -36 1 -75 -12 -80 -27 -256 -74 -373 -100 -102
-22 -195 -48 -180 -49 6 -1 60 10 120 23 173 38 218 39 409 7 40 -7 57 -5 82
8 26 14 29 19 17 27 -11 7 -13 17 -8 33 6 19 11 22 33 16 56 -15 108 -24 145
-25 23 0 36 -4 32 -10 -4 -6 16 -10 52 -11 48 -1 53 -3 28 -9 -23 -6 -15 -8
35 -8 36 0 85 -5 110 -12 25 -6 60 -14 78 -17 19 -3 36 -12 39 -19 3 -8 19
-14 39 -14 38 0 46 -15 12 -25 -13 -3 -32 -10 -43 -15 -47 -20 -347 -105 -408
-116 -20 -3 -40 -11 -44 -17 -13 -22 139 2 360 57 126 31 249 59 275 63 68 8
72 15 72 101 0 58 5 82 21 109 12 18 18 40 15 48 -8 21 -66 20 -66 -1 0 -9 -6
-14 -13 -11 -31 12 -180 37 -282 47 -60 6 -172 27 -248 46 -76 19 -142 32
-147 29 -5 -3 -12 0 -15 6 -4 5 -13 8 -20 5 -7 -2 -16 -2 -19 2 -4 3 -14 7
-24 8 -9 2 -55 10 -102 18 -257 45 -716 114 -669 100z"/>
<path d="M0 3421 c0 -50 4 -92 8 -95 16 -9 364 -76 399 -76 37 0 65 22 128
103 l30 37 55 -13 c30 -8 89 -20 130 -27 41 -7 118 -21 170 -31 86 -16 125
-18 88 -4 -29 11 -971 195 -999 195 -5 0 -9 -40 -9 -89z"/>
<path d="M4650 3325 c-36 -13 -125 -45 -199 -70 -218 -76 -341 -125 -338 -138
3 -17 94 -26 152 -15 115 22 303 40 284 26 -16 -10 14 -4 116 23 38 11 87 19
108 19 23 0 40 5 43 14 3 8 17 17 30 20 14 4 22 11 19 16 -3 6 -1 10 4 10 6 0
11 4 11 9 0 5 -18 11 -40 15 -22 3 -40 10 -40 15 0 5 32 17 70 26 93 23 84 31
-11 9 -41 -9 -78 -17 -83 -18 -6 0 -12 13 -16 29 -7 39 -27 41 -110 10z"/>
<path d="M1142 3268 c10 -18 14 -150 16 -582 l3 -559 42 7 c23 3 79 12 123 20
162 30 302 39 512 33 259 -7 359 -28 551 -118 216 -101 570 -389 678 -553 17
-26 30 -53 27 -60 -3 -8 6 -15 23 -19 15 -3 48 -14 73 -25 l45 -19 -45 4
c-145 12 -177 14 -197 14 -12 -1 -24 7 -26 17 -4 15 -5 15 -6 -1 0 -10 -5 -15
-11 -12 -5 3 -10 1 -10 -6 0 -7 -8 -5 -20 6 -11 10 -20 15 -20 10 0 -4 -7 -2
-15 5 -12 10 -15 10 -15 -1 0 -11 -2 -11 -10 1 -9 13 -10 13 -10 0 0 -13 -1
-13 -10 0 -6 10 -10 11 -10 3 0 -7 -5 -13 -11 -13 -6 0 -9 7 -6 15 4 8 2 17
-3 20 -6 4 -10 -1 -10 -10 0 -9 -4 -13 -10 -10 -5 3 -10 0 -10 -7 0 -10 -2
-10 -9 1 -5 8 -14 10 -21 6 -9 -5 -11 -4 -6 3 4 7 2 12 -3 12 -6 0 -11 -4 -11
-10 0 -14 -28 -12 -33 3 -3 9 -7 9 -18 0 -9 -7 -20 -9 -29 -3 -9 5 -19 5 -27
-2 -9 -7 -17 -7 -28 2 -8 6 -19 9 -26 5 -6 -4 -16 -1 -21 6 -7 10 -7 7 -3 -8
7 -25 -9 -32 -19 -8 -3 8 -11 15 -18 15 -9 0 -9 -3 0 -12 14 -14 16 -28 3 -28
-5 0 -12 11 -15 25 -4 14 -11 23 -16 20 -5 -3 -7 -12 -3 -20 3 -8 0 -15 -7
-15 -6 0 -9 3 -7 8 3 4 -1 13 -9 20 -12 11 -14 9 -14 -8 0 -24 -13 -26 -30 -5
-10 12 -10 15 0 15 8 0 10 3 7 6 -4 4 -12 3 -19 -3 -7 -5 -26 -10 -42 -11 -16
-1 -35 -10 -42 -20 -13 -16 -14 -16 -8 3 5 19 5 19 -9 2 -11 -13 -16 -15 -19
-5 -4 11 -8 11 -20 0 -10 -8 -19 -9 -22 -3 -3 5 0 12 6 14 7 3 3 6 -9 6 -12 1
-30 4 -40 7 -16 6 -16 5 2 -9 11 -9 15 -17 8 -17 -7 0 -13 -5 -13 -11 0 -6 9
-8 23 -4 18 5 19 4 5 -5 -17 -11 -48 -4 -48 11 0 5 -11 7 -25 3 -18 -4 -27 -1
-31 10 -9 24 -26 8 -18 -17 6 -20 5 -21 -11 -7 -17 14 -18 13 -13 -8 4 -12 2
-20 -3 -16 -5 3 -9 16 -9 30 0 13 -5 24 -11 24 -6 0 -9 -7 -5 -15 7 -19 -3
-45 -16 -45 -7 0 -6 5 1 13 14 17 2 30 -14 17 -9 -8 -14 -6 -19 5 -7 18 -26
20 -26 3 0 -7 -12 -21 -25 -31 -22 -15 -25 -16 -25 -2 0 8 7 15 15 15 8 0 15
4 15 8 0 20 -14 20 -39 1 -21 -17 -27 -18 -36 -6 -12 17 -35 11 -35 -9 0 -8
-4 -14 -10 -14 -6 0 -6 9 0 26 14 36 12 42 -8 19 -20 -23 -80 -27 -104 -7 -13
10 -17 9 -23 -5 -7 -17 -8 -17 -15 2 -9 20 -9 20 -9 -1 -1 -11 3 -24 8 -30 6
-5 -1 -9 -19 -10 -25 -1 -28 1 -20 17 7 11 7 20 0 24 -5 3 -10 -1 -10 -9 0 -9
-4 -16 -10 -16 -5 0 -10 6 -10 14 0 11 -8 12 -40 4 -46 -12 -50 -20 -17 -36
l22 -11 -25 2 c-14 1 -28 7 -32 12 -5 6 -12 4 -18 -5 -9 -14 -15 -7 -11 14 3
14 -21 26 -50 26 -19 0 -26 -5 -25 -16 0 -9 -5 -19 -11 -21 -8 -3 -13 5 -13
22 0 16 -4 24 -11 19 -6 -3 -9 -16 -7 -28 3 -12 -1 -27 -8 -34 -17 -16 -32
-16 -16 0 14 14 16 82 2 73 -5 -3 -7 -12 -3 -20 6 -18 -14 -45 -33 -45 -22 0
-42 29 -38 52 5 21 4 21 -10 -3 -9 -15 -23 -29 -32 -33 -15 -6 -15 -4 1 20 21
33 9 47 -15 17 -15 -19 -20 -20 -30 -8 -9 11 -16 12 -32 2 -16 -10 -22 -9 -25
1 -4 10 -10 10 -29 -3 -21 -14 -30 -14 -59 -3 -32 11 -49 38 -25 38 6 0 5 6
-2 14 -7 8 -17 12 -22 9 -4 -3 -3 -9 3 -13 9 -5 7 -11 -4 -20 -14 -12 -18 -11
-27 1 -7 10 -8 6 -3 -14 4 -19 2 -26 -5 -22 -5 3 -10 10 -10 16 0 5 -9 18 -20
29 -11 11 -20 15 -20 9 0 -6 -7 -17 -15 -25 -13 -14 -15 -13 -15 5 0 12 5 21
12 21 6 0 8 3 5 6 -4 4 -13 1 -22 -6 -8 -7 -28 -10 -45 -8 -18 3 -35 -1 -41
-9 -13 -15 -49 -18 -49 -4 0 5 8 12 18 14 9 2 5 3 -10 1 -30 -4 -46 11 -22 20
8 3 12 11 8 17 -5 8 -13 4 -25 -12 -12 -15 -19 -19 -19 -10 0 8 -3 12 -6 8 -3
-3 1 -15 9 -27 9 -14 16 -17 19 -9 2 7 4 -4 4 -24 l0 -36 -34 62 c-84 155
-252 505 -252 526 0 6 13 11 29 11 47 0 45 17 -3 35 -53 20 -56 28 -91 190
-15 66 -28 125 -30 130 -2 8 19 8 65 2 89 -12 104 -7 96 35 -3 18 -16 42 -27
54 -19 20 -96 48 -159 57 -21 3 -28 15 -51 88 -25 81 -54 155 -105 268 -14 29
-23 55 -21 57 2 2 14 -18 26 -46 20 -45 26 -50 74 -64 70 -20 245 -48 257 -41
11 7 13 55 4 80 -11 27 -73 52 -204 80 -69 14 -133 28 -142 31 -10 3 -18 -2
-20 -12 -2 -9 -30 39 -63 107 l-60 123 -3 -1244 c-1 -950 1 -1245 10 -1251 36
-22 158 -34 356 -34 152 0 212 -3 212 -11 0 -7 -7 -47 -16 -89 -15 -72 -15
-79 0 -87 18 -10 20 -29 6 -72 -17 -52 -80 -313 -80 -330 0 -14 21 -16 170
-16 l170 0 0 110 c0 61 -3 110 -7 110 -5 0 -14 4 -21 9 -11 6 -8 25 13 97 61
201 117 273 248 317 45 15 79 22 83 16 3 -5 8 -122 11 -259 5 -280 7 -273 -65
-252 -56 16 -174 43 -176 40 -1 -2 0 -45 2 -95 l4 -93 193 0 194 0 -5 349 c-6
391 -11 361 66 376 l35 6 -3 -365 -4 -366 2311 0 2311 0 1 1118 c0 614 4 1137
8 1162 5 25 9 40 10 34 0 -7 13 -15 29 -19 15 -3 37 -13 50 -21 l22 -14 0
-1130 c0 -897 3 -1130 13 -1130 9 0 11 232 9 1135 l-3 1136 28 -6 c15 -3 44
-10 63 -15 63 -17 326 -67 395 -76 85 -10 97 -19 145 -107 60 -109 118 -167
195 -194 82 -28 727 -154 791 -153 63 0 113 33 181 120 25 33 53 60 62 60 9 0
158 -29 331 -64 l315 -63 7 -34 c5 -19 8 -117 7 -219 -3 -575 2 -1520 9 -1520
4 0 7 394 8 875 1 482 3 877 5 879 2 2 31 -1 63 -8 43 -8 61 -17 67 -31 4 -11
8 -401 8 -867 l1 -848 700 0 700 0 0 1240 c0 745 -4 1240 -9 1240 -10 0 -103
-36 -331 -127 -74 -30 -241 -94 -370 -144 -129 -49 -299 -118 -377 -152 l-143
-62 0 -97 c0 -115 10 -109 -140 -78 -81 17 -517 99 -775 145 -325 60 -629 115
-730 135 -55 10 -197 37 -315 59 -118 23 -246 47 -285 55 -38 8 -108 22 -155
30 -47 9 -159 29 -250 46 -91 17 -192 35 -225 41 -101 17 -145 25 -630 119
-696 135 -1361 265 -1610 315 -121 24 -317 63 -435 85 -118 23 -258 50 -310
60 -52 11 -183 35 -290 55 -107 20 -238 44 -290 55 -398 78 -535 104 -750 145
-135 26 -333 64 -441 86 -107 21 -208 39 -223 39 -25 0 -26 -2 -14 -22z"/>
<path d="M7403 3153 c13 -4 17 -15 17 -58 0 -29 -5 -55 -11 -57 -6 -2 47 -9
118 -16 70 -7 216 -28 323 -46 107 -19 317 -55 465 -80 149 -26 300 -55 336
-66 85 -25 184 -39 279 -40 59 0 96 -8 173 -35 54 -19 95 -31 93 -26 -3 4 25
1 62 -6 37 -6 116 -21 176 -33 59 -11 131 -20 158 -20 l50 0 -4 46 -3 46 73
-6 c51 -5 72 -4 67 4 -3 5 -22 10 -41 10 -19 0 -65 7 -102 14 -37 8 -134 27
-217 41 -82 14 -170 30 -195 35 -49 10 -245 44 -350 59 -80 12 -704 115 -820
136 -47 8 -181 31 -298 50 -117 19 -232 40 -255 45 -41 9 -130 12 -94 3z"/>
<path d="M5808 3095 c-3 -3 -24 -8 -47 -11 -23 -3 -52 -9 -64 -14 -29 -12
-135 -77 -188 -115 -31 -22 -57 -31 -100 -35 -32 -3 -60 -3 -61 1 -2 3 -14 10
-28 13 -24 7 -24 7 4 -12 16 -11 35 -18 41 -15 7 2 16 -1 20 -6 3 -6 10 -9 15
-6 5 3 19 1 31 -6 15 -7 19 -8 15 0 -5 7 -1 9 8 5 9 -3 14 -10 11 -14 -3 -5 7
-10 22 -12 20 -2 29 -9 31 -24 2 -12 15 -27 30 -33 24 -11 25 -14 9 -22 -10
-6 -25 -8 -35 -5 -9 3 -23 2 -30 -3 -9 -5 1 -10 30 -14 23 -3 75 -13 113 -22
39 -8 102 -22 140 -31 39 -8 75 -22 82 -31 19 -24 102 -12 388 57 138 33 306
74 375 90 322 75 586 142 595 151 18 18 -19 34 -111 47 -49 7 -125 19 -169 27
-159 27 -174 27 -290 1 -175 -39 -329 -75 -479 -111 -78 -19 -145 -31 -153
-27 -9 5 3 12 36 21 55 14 87 40 61 50 -8 3 -42 14 -75 26 -45 15 -60 25 -59
38 2 13 -3 16 -18 11 -14 -4 -18 -2 -14 5 10 15 -7 14 -23 -1 -11 -10 -12 -10
-7 -1 7 13 -45 12 -111 -2 -27 -6 -27 -6 -8 10 11 9 28 14 38 11 9 -2 17 0 17
5 0 10 -33 13 -42 4z m1024 -62 c9 -8 14 -21 12 -28 -3 -7 7 -17 26 -24 17 -6
29 -15 26 -19 -5 -9 -243 -69 -501 -127 -214 -47 -381 -86 -435 -99 -30 -8
-71 -17 -92 -20 -33 -6 -36 -5 -31 14 3 11 9 20 14 20 5 0 9 7 9 15 0 8 -4 15
-10 15 -5 0 -10 5 -10 10 0 6 9 10 20 10 20 0 72 45 62 54 -3 3 10 6 29 7 52
1 53 1 579 139 159 41 257 60 275 52 6 -3 18 -12 27 -19z"/>
<path d="M4145 3051 c-25 -10 81 -44 205 -65 47 -8 107 -20 134 -26 28 -5 59
-8 70 -4 17 4 18 3 6 -5 -13 -9 -13 -11 2 -11 9 0 28 4 42 10 17 6 34 6 48 -1
22 -9 22 -9 -2 -5 -14 3 -32 1 -40 -4 -12 -8 -10 -10 9 -10 13 0 117 -18 230
-40 218 -42 533 -98 591 -105 l35 -5 -35 11 c-19 5 -56 16 -81 24 -26 8 -54
15 -63 15 -10 0 -13 6 -10 15 5 12 -5 15 -52 17 -44 1 -49 2 -21 5 l39 4 -26
24 c-14 13 -26 28 -26 33 0 5 -11 14 -24 21 -13 7 -29 25 -36 39 -9 21 -13 23
-20 11 -8 -11 -13 -12 -27 -1 -10 7 -26 15 -35 18 -10 4 -18 10 -18 15 0 5
-54 9 -120 9 -100 0 -120 -2 -120 -15 0 -11 -11 -15 -39 -15 -22 0 -41 -4 -43
-9 -5 -14 -158 -26 -158 -12 0 6 -17 11 -40 11 -30 0 -40 4 -40 16 0 11 -5 14
-16 10 -9 -3 -31 -6 -50 -6 -22 0 -33 -4 -29 -10 4 -6 21 -8 42 -4 26 5 34 4
29 -5 -4 -6 -1 -11 8 -11 9 0 16 -5 16 -11 0 -5 -5 -7 -12 -3 -12 8 -76 22
-131 29 -66 8 -97 17 -97 27 0 6 7 7 18 2 9 -4 35 -9 57 -10 l40 -3 -40 11
c-22 6 -66 10 -97 10 -32 0 -55 4 -52 9 6 10 6 10 -21 0z"/>
<path d="M8438 2717 c11 -13 10 -15 -9 -10 -17 5 -20 3 -13 -8 6 -10 1 -9 -18
3 -22 14 -27 15 -32 3 -2 -7 0 -16 7 -19 7 -3 1 -3 -13 0 -33 9 -37 13 -20 24
11 7 5 10 -20 10 l-35 0 30 -24 c17 -13 27 -27 24 -31 -4 -3 -13 0 -21 8 -7 8
-24 19 -36 26 -22 11 -22 11 -10 -8 7 -12 16 -21 20 -21 5 0 8 -7 8 -15 0 -8
-7 -15 -15 -15 -9 0 -15 7 -13 16 4 20 -46 59 -62 49 -9 -6 -9 -10 1 -16 11
-7 10 -9 -5 -9 -15 0 -16 -3 -6 -15 9 -11 16 -12 26 -4 7 6 19 9 26 6 8 -3 5
-6 -6 -6 -18 -1 -18 -2 -1 -21 17 -19 17 -19 -22 0 -41 19 -83 57 -49 44 9 -3
16 -2 16 4 0 5 -18 10 -40 10 -22 1 -39 -2 -36 -6 2 -4 -19 -8 -46 -9 -28 0
-96 -7 -150 -14 -90 -11 -97 -14 -76 -25 13 -7 29 -13 36 -14 7 0 20 -6 27
-14 17 -16 159 -31 204 -21 19 4 31 3 31 -4 0 -5 -21 -13 -47 -16 -78 -10 -80
-11 -48 -25 78 -35 581 0 913 62 56 10 67 27 30 46 -25 12 -218 21 -218 10 0
-4 -9 -5 -20 -3 -18 3 -182 -22 -268 -41 -20 -4 -23 -2 -17 14 3 12 0 22 -9
25 -18 7 -26 -1 -26 -25 0 -11 -7 -18 -17 -18 -19 1 -53 22 -53 34 0 4 8 6 18
4 9 -2 16 3 14 10 -1 9 6 10 24 6 21 -5 25 -4 19 6 -6 10 -4 12 9 7 9 -4 15
-3 11 2 -3 5 1 11 7 13 8 3 3 10 -12 18 -22 12 -24 12 -12 -3z"/>
<path d="M9188 2572 c-135 -15 -224 -30 -221 -36 3 -5 1 -6 -6 -2 -17 11 -505
-46 -648 -75 -41 -8 -53 -15 -53 -29 0 -11 -8 -23 -17 -29 -14 -8 -10 -11 22
-17 38 -7 166 7 715 76 470 60 625 82 638 89 23 13 -64 42 -138 46 -36 2 -167
-8 -292 -23z"/>
<path d="M6784 1533 c20 -21 36 -40 36 -43 0 -4 28 -29 63 -57 98 -80 168
-109 350 -149 89 -19 224 -48 300 -64 207 -45 236 -41 368 45 46 30 81 55 78
55 -20 0 -1016 206 -1159 239 -71 16 -75 13 -36 -26z"/>
<path d="M6776 1131 c72 -122 183 -189 404 -245 162 -41 458 -111 553 -130 83
-18 127 -8 202 46 28 20 66 44 85 54 l35 18 -30 7 c-68 15 -863 194 -1020 230
-93 21 -187 41 -209 45 l-38 6 18 -31z"/>
<path d="M6770 481 c0 -16 119 -148 156 -173 67 -46 180 -84 454 -153 290 -72
368 -84 415 -63 47 20 185 102 185 109 0 11 -39 17 -77 12 -37 -5 -297 57
-833 198 -274 72 -300 78 -300 70z"/>
<path d="M0 249 l0 -200 47 -22 c42 -19 69 -22 203 -25 l155 -3 43 146 c24 80
40 150 37 155 -3 6 -13 10 -21 10 -8 0 -110 32 -228 70 -117 39 -218 70 -224
70 -9 0 -12 -55 -12 -201z"/>
</g>
</svg>
