<svg version="1.2" xmlns="http://www.w3.org/2000/svg" viewBox="0 0 512 512" width="512" height="512">
	<title>linux-svgrepo-com-svg</title>
	<style>
		.s0 { fill: #c28b39 } 
		.s1 { fill: #263740 } 
		.s2 { fill: #1e2c33 } 
		.s3 { fill: #f5f5f5 } 
		.s4 { fill: #e6e6e6 } 
		.s5 { fill: #ffd464 } 
	</style>
	<path id="Layer" class="s0" d="m256 512c-141.6 0-256-114.4-256-256 0-141.6 114.4-256 256-256 141.6 0 256 114.4 256 256 0 141.6-114.4 256-256 256z"/>
	<path id="Layer" class="s0" d="m435.8 435.7q-0.4-1.1-0.8-2.1-0.4-1-0.8-2-0.5-1-0.9-2.1-0.4-1-0.8-2-0.4-1.1-0.8-2.1-0.5-1-0.9-2-0.4-1.1-0.8-2.1-0.4-1-0.8-2-0.4-1.1-0.9-2.1-0.4-1-0.8-2-0.4-1.1-0.8-2.1-0.4-1-0.8-2-0.4-1.1-0.9-2.1-0.4-1-0.8-2-0.4-1.1-0.8-2.1-0.4-1-0.9-2-0.3-1-0.7-2c-0.3-0.7-0.6-1.4-0.9-2.1q-0.4-1.1-0.8-2.1-0.4-1-0.9-2c-0.2-0.7-0.5-1.4-0.8-2.1q-0.4-1-0.8-2-0.4-1.1-0.8-2.1-0.4-1-0.9-2-0.4-1.1-0.8-2.1-0.4-1-0.8-2-0.4-1.1-0.9-2.1-0.4-1-0.8-2-0.4-1.1-0.8-2.1-0.4-1-0.8-2-0.4-1.1-0.9-2.1-0.4-1-0.8-2-0.4-1-0.8-2-0.4-1.1-0.8-2.1-0.4-1.1-0.9-2.1-0.4-1-0.8-2-0.4-1.1-0.8-2.1-0.4-1-0.9-2-0.4-1-0.8-2.1-0.4-1-0.8-2-0.4-1.1-0.8-2.1-0.4-1-0.9-2-0.4-1.1-0.8-2.1-0.4-1-0.8-2-0.4-1.1-0.9-2.1-0.4-1-0.8-2-0.4-1-0.8-2.1-0.4-1-0.8-1.9-0.4-1.1-0.9-2.2-0.4-1-0.8-2-0.4-1-0.8-2.1-0.4-1-0.8-2-0.4-1-0.9-2.1-0.4-1-0.8-2-0.4-1-0.8-2.1-0.4-1-0.9-2-0.4-1-0.8-2.1-0.4-1-0.8-2-0.4-1-0.8-2.1-0.4-1-0.9-2-0.4-1-0.8-2.1-0.4-1-0.8-2-0.4-1-0.8-2-0.4-1.1-0.9-2.1-0.4-1-0.8-2.1-0.4-1-0.8-2-0.4-1-0.8-2c-0.3-0.7-0.6-1.4-0.9-2.1q-0.4-1-0.8-2.1-0.4-1-0.8-2-0.4-1-0.9-2.1-0.4-1-0.8-2-0.4-1-0.8-2.1-0.4-1-0.9-2-0.4-1-0.8-2.1-0.4-1-0.8-2-0.4-1-0.8-2-0.4-1-0.8-2c-0.3-0.8-0.6-1.4-0.9-2.2q-0.4-1-0.8-2-0.4-1-0.8-2.1-0.4-1-0.9-2-0.4-1-0.8-2.1-0.4-1-0.8-2c-7.3-18.9-18.7-35.5-29.2-48.6q-0.1-0.2-0.2-0.4-0.4-1-0.8-2-0.4-1.1-0.9-2.1-0.3-1-0.8-2-0.4-1.1-0.8-2.1-0.4-1-0.8-2-0.4-1.1-0.9-2.1-0.3-1-0.8-2-0.4-1-0.8-2.1-0.4-1-0.8-2-0.4-1.1-0.9-2.1-0.4-1-0.8-2-0.4-1.1-0.8-2.1-0.4-1-0.9-2-0.3-1-0.8-2.1c-0.3-0.6-0.5-1.3-0.8-2q-0.4-1-0.8-2.1-0.4-1-0.9-2-0.4-1-0.8-2.1-0.4-1-0.8-2-0.4-1-0.9-2.1-0.3-1-0.8-2-0.4-1-0.8-2-0.4-1.1-0.8-2.1-0.4-1-0.9-2.1-0.3-1-0.8-2c-0.3-0.7-0.5-1.4-0.8-2-0.3-0.7-0.5-1.4-0.8-2.1q-0.4-1-0.9-2-0.4-1.1-0.8-2.1-0.4-1-0.8-2-0.4-1.1-0.9-2.1-0.3-1-0.8-2-0.4-1.1-0.8-2.1-0.4-1-0.8-2-0.4-1.1-0.9-2.1c-0.2-0.7-0.5-1.4-0.8-2q-0.4-1.1-0.8-2-0.4-1.1-0.8-2.1-0.4-1.1-0.9-2.1-0.4-1-0.8-2-0.4-1.1-0.8-2.1-0.4-1-0.9-2-0.3-1.1-0.8-2.1c-6.5-16.6-23.1-28.4-42.6-28.4-25.2 0-43.7 19.7-45.6 43.9-0.5 6.2 4.2 46.2 5.4 65.2-22.8 21.4-61.7 74.4-59.6 124.3l0.6 0.8c-17.3 4.7-42.2 29.1-34.5 46.9 0.2 0.3 0.4 0.7 0.5 1.1 0.1 0.3 0.2 0.6 0.3 0.9 0.2 0.4 0.4 0.7 0.6 1.1 0.1 0.3 0.1 0.7 0.3 1 0.1 0.3 0.3 0.7 0.5 1.1 0.1 0.3 0.2 0.6 0.3 0.9 0.1 0.4 0.3 0.7 0.5 1.1 0.1 0.3 0.2 0.7 0.3 1 0.2 0.4 0.4 0.7 0.5 1.1 0.2 0.3 0.2 0.6 0.3 0.9 0.2 0.4 0.4 0.8 0.6 1.1 0.1 0.3 0.1 0.7 0.3 1 0.1 0.4 0.3 0.7 0.5 1 0.1 0.4 0.2 0.7 0.3 1 0.2 0.4 0.3 0.8 0.5 1.1 0.1 0.3 0.2 0.7 0.3 1 0.2 0.4 0.4 0.7 0.5 1.1 0.2 0.3 0.2 0.6 0.4 1 0.1 0.3 0.3 0.7 0.5 1 0.1 0.4 0.1 0.7 0.3 1 0.1 0.4 0.3 0.7 0.5 1.1 0.1 0.3 0.2 0.6 0.3 1 0.2 0.3 0.4 0.7 0.5 1 0.1 0.4 0.2 0.7 0.3 1 0.2 0.4 0.4 0.7 0.6 1.1 0.1 0.3 0.1 0.6 0.3 1 0.1 0.3 0.3 0.7 0.5 1 0.1 0.4 0.2 0.7 0.3 1 0.1 0.4 0.3 0.7 0.5 1.1 0.1 0.3 0.2 0.7 0.3 1 0.2 0.3 0.4 0.7 0.5 1.1 0.2 0.3 0.2 0.6 0.3 0.9 0.2 0.4 0.4 0.7 0.6 1.1 0.1 0.3 0.1 0.7 0.3 1 0.1 0.3 0.3 0.7 0.5 1.1 0.1 0.3 0.2 0.6 0.3 0.9 0.2 0.4 0.4 0.7 0.5 1.1 0.1 0.3 0.2 0.7 0.3 1 0.2 0.4 0.4 0.7 0.6 1.1 0.1 0.3 0.1 0.6 0.3 0.9 0.1 0.4 0.3 0.8 0.5 1.1 0.1 0.3 0.1 0.7 0.3 1 0.1 0.4 0.3 0.7 0.5 1 0.1 0.4 0.2 0.7 0.3 1 0.2 0.4 0.4 0.8 0.5 1.1 0.1 0.3 0.2 0.7 0.3 1 0.2 0.4 0.4 0.7 0.6 1.1 0.1 0.3 0.1 0.6 0.3 1 0.1 0.3 0.3 0.7 0.5 1 0.1 0.4 0.2 0.7 0.3 1 0.2 0.4 0.3 0.7 0.5 1.1 0.1 0.3 0.2 0.6 0.3 1 0.2 0.3 0.4 0.7 0.5 1 0.2 0.4 0.2 0.7 0.3 1 0.2 0.4 0.4 0.7 0.6 1.1 0.1 0.3 0.1 0.6 0.3 1 0.1 0.3 0.3 0.7 0.5 1 0.1 0.4 0.2 0.7 0.3 1 0.2 0.4 0.4 0.7 0.5 1.1 0.1 0.3 0.2 0.7 0.3 1 0.2 0.3 0.4 0.7 0.6 1.1 0.1 0.3 0.1 0.6 0.3 0.9 0.1 0.4 0.3 0.7 0.5 1.1 0.1 0.3 0.2 0.7 0.3 1 0.1 0.3 0.3 0.7 0.5 1.1 0.1 0.3 0.2 0.6 0.3 0.9 0.2 0.4 0.4 0.7 0.5 1.1 0.2 0.3 0.2 0.7 0.3 1 0.2 0.4 0.4 0.7 0.6 1.1 0.1 0.3 0.1 0.6 0.3 0.9 0.1 0.4 0.3 0.8 0.5 1.1 0.1 0.3 0.2 0.7 0.3 1 0.2 0.4 0.3 0.7 0.5 1 0.1 0.4 0.2 0.7 0.3 1 0.2 0.4 0.4 0.8 0.5 1.1 0.2 0.3 0.2 0.7 0.3 1 0.2 0.4 0.4 0.7 0.6 1.1 0.1 0.3 0.1 0.6 0.3 0.9 0.1 0.4 0.3 0.8 0.5 1.1 0.1 0.4 0.2 0.7 0.3 1 0.2 0.4 0.4 0.7 0.5 1.1 0.1 0.3 0.2 0.6 0.3 1 0.2 0.3 0.4 0.7 0.6 1 0.1 0.4 0.1 0.7 0.3 1 0.1 0.4 0.3 0.7 0.5 1.1 0.1 0.3 0.2 0.6 0.3 1 0.2 0.3 0.3 0.7 0.5 1 0.1 0.4 0.2 0.7 0.3 1 0.2 0.4 0.4 0.7 0.5 1.1 0.2 0.3 0.2 0.7 0.3 1 0.2 0.3 0.4 0.7 0.6 1.1 0.1 0.3 0.1 0.6 0.3 0.9 0.1 0.4 0.3 0.7 0.5 1.1 0.1 0.3 0.2 0.7 0.3 1 0.2 0.3 0.4 0.7 0.5 1.1 0.1 0.3 0.2 0.6 0.3 0.9 0.2 0.4 0.4 0.7 0.6 1.1 0.1 0.3 0.1 0.7 0.3 1 0.1 0.3 0.3 0.7 0.5 1.1 0.1 0.3 0.2 0.6 0.3 0.9 0.1 0.4 0.3 0.8 0.5 1.1 0.1 0.3 0.2 0.7 0.3 1 0.2 0.3 0.4 0.7 0.5 1 0.1 0.4 0.2 0.7 0.3 1 0.2 0.4 0.4 0.8 0.6 1.1 0.1 0.3 0.1 0.7 0.3 1 0.1 0.4 0.3 0.7 0.5 1.1 0.1 0.3 0.2 0.6 0.3 0.9 0.2 0.4 0.3 0.8 0.5 1.1 0.1 0.3 0.2 0.7 0.3 1 0.2 0.4 0.4 0.7 0.5 1.1 0.2 0.3 0.2 0.6 0.3 1 0.2 0.3 0.4 0.7 0.6 1 0.1 0.4 0.1 0.7 0.3 1 0.1 0.4 0.3 0.7 0.5 1.1 0.1 0.3 0.2 0.6 0.3 1q0.1 0.1 0.1 0.2c26 8.7 53.9 13.6 82.9 13.6 70.4 0 134.2-28.5 180.5-74.5q-0.3-0.9-0.7-1.8z"/>
	<path id="Layer" class="s1" d="m217.5 401.5c15.8 6.7 56.6 11.2 100-4.9l53.3-70.9c19.3-70.7-57-134.2-59.4-139.4-2.4-5.2-7.2-44.4-7.2-44.4 0-24.2-20.4-43.9-45.6-43.9-25.1 0-43.6 19.8-45.6 43.9-0.5 6.2 4.3 46.2 5.5 65.2-22.8 21.4-61.8 74.5-59.7 124.3z"/>
	<path id="Layer" class="s2" d="m311.4 186.3c-2.4-5.2-7.2-44.4-7.2-44.4 0-24.2-20.4-43.9-45.5-43.9-2.8 0-5.4 0.3-8 0.7 21.3 3.7 37.6 21.6 37.6 43.2 0 0 4.7 39.2 7.1 44.4 2.4 5.2 78.8 68.7 59.4 139.4l-53.3 70.9c-18.6 6.9-36.8 10-52.7 10.8 19.1 1 43.4-1.4 68.7-10.8l53.3-70.9c19.3-70.7-57-134.2-59.4-139.4z"/>
	<path id="Layer" class="s3" d="m322.2 410.8c-10.2-17.5-8.8-73.6 3.1-86.5 16.7-5.1 59.2-4.1 62.7 18.7 5.6 35.5-41.2 76.7-65.8 67.8z"/>
	<path id="Layer" class="s4" d="m388 343c-2.7-17.1-27.3-21.9-46.4-21.1 17.4 0.7 36.1 6.3 38.4 21.1 4.8 30.5-29 65.1-54.2 68.7 25.3 4.1 67.5-34.9 62.2-68.7z"/>
	<path id="Layer" class="s3" d="m217.8 404.3c-0.7-20-27.5-66.2-49.2-72.4-15.5-4.8-52.8 25.9-43.6 47.2 14.3 33.2 76.4 45.1 92.8 25.2z"/>
	<path id="Layer" class="s4" d="m168.6 331.9c-2.3-0.7-5-0.6-8 0 21.8 6.3 48.5 52.5 49.2 72.4-4.9 5.9-13.6 9-24 9.6 13.8 0.7 25.9-2.2 32-9.6-0.7-20-27.5-66.2-49.2-72.4z"/>
	<path id="Layer" class="s5" d="m239.6 187c3.1-4 12.2-10 20.9-13.4 9.5-1.3 19.3 1.4 24.7 3.7 3.6 19.9-8.5 15.2-20 34.4-18.2-11.2-23-10.9-25.6-24.7z"/>
</svg>